<svg id="Capa_1" data-name="Capa 1" xmlns="http://www.w3.org/2000/svg" viewBox="0 0 449.05 329.79"><defs><style>.cls-1{fill:#274c4c;}</style></defs><path class="cls-1" d="M721.64,695.53a38.13,38.13,0,0,0-3.56,4.57c-2.09,3.64-5.81,5.21-10.22,5.93-3.76.61-6.25-.71-7.58-4a18.91,18.91,0,0,1-1.19-4.72c-.59-4.78-3.19-7.08-10.41-8.46a34.36,34.36,0,0,0-4.48-.24c.19.87.34,1.46.45,2,.65,3.42-.26,5.1-4,5.75a70,70,0,0,1-10.3.79,4.9,4.9,0,0,1-4.93-3.23c-.34-.82-1-2-1.74-2.23-4.65-1.61-7.88-4.58-10.73-8.39l-3.66,1.1a5.37,5.37,0,0,0,.32,1.43c3.74,5.78,2.7,11.72,2.66,17.6a5.5,5.5,0,0,1-1.38,2.78c-2.15,3.06-5.26,3.56-8.83,1.18-2.51-1.69-4.58-3.9-7.12-5.54a13.38,13.38,0,0,0-5.84-2.29,27.21,27.21,0,0,1-11.81-3.81c-4.56-2.62-9.51-4.12-14.41-5.88a26.92,26.92,0,0,1-5.85-2.63,149.82,149.82,0,0,1-25.34-20.89,52.62,52.62,0,0,0-7.12-6.14,231.59,231.59,0,0,1-32.91-28.48c-7.62-8-14.27-16.69-21.32-25.09-1.6-1.9-3-3.95-4.64-5.79-16.4-18-33.29-35.53-52.76-51.16q-16.21-13-32.51-26a27.75,27.75,0,0,0-2.88-2.2c-11.15-6.62-20.41-15.09-29.94-23.29-3.41-2.93-6.82-5.86-10-8.94-1.35-1.3-2-3.14-3.31-4.46-5.88-5.84-11.89-11.58-17.85-17.35-5.25-1.87-9-5.65-13.4-8.54a13.39,13.39,0,0,1-5.28-6.23c-5.52-13.32-3.7-25.09,7-34.46,7-6.07,14.65-11.57,22.27-17.06,6.49-4.68,13.15-9.22,20.09-13.41,8.55-5.17,18.71-7.49,29.27-8.53,5-.49,10.34.21,15.52.46a5.81,5.81,0,0,1,2.57.94c6.74,4.35,13.61,8.53,20.33,12.89,9.84,6.39,19.94,12.56,29.1,19.64,17.26,13.31,35,25.94,54.52,36.56,10.51,5.71,20.35,12.43,30.68,18.44,15.75,9.17,31.57,18.27,47.54,27.13,17.17,9.53,34.43,18.95,51.89,28,8.57,4.46,17.68,8.07,26.56,12.05q15.84,7.13,31.7,14.23c7.46,3.36,14.92,6.71,22.33,10.17,13.19,6.15,20.06,16.28,24.57,27.87-.47,5.09,3.11,9.3,5.54,13.73,1.37,2.51,1.1,4.33-1.16,5.92a16.12,16.12,0,0,0-2.39,2.2c-2.2,2.33-2.24,5-.3,7.72,1.07,1.52,2.55,2.84,3.68,4.34,1.48,2,3.2,3.88,4.1,6,1.75,4.13-.75,7.84-5.35,8.65s-6.46,2.89-5.83,7a26.44,26.44,0,0,0,1.82,5.45c.8,2.06,1.89,4.06,2.58,6.14,2,6-1.71,10.91-8.66,11.22-4.12.19-6.8,2.36-9.74,4.14-.7.42-.59,2.13-.35,3.19.33,1.43,1.25,2.8,1.74,4.22a8.25,8.25,0,0,1-1.42,8.58c-3.46,4-9.36,3.82-13.16-.56a71.37,71.37,0,0,1-4.46-6.37c-1.39-2-2.65-4.1-4.23-6-2.44-2.93-5-3.43-7.41-1.74-2.9,2-2.93,3.91-.07,6.72.43.41.9.79,1.34,1.19a15.14,15.14,0,0,1,1.28,1.25c2.91,3.49,2.06,7.54,3.16,11.3.56,1.91-5.13,4.43-8.57,4.23A38.27,38.27,0,0,1,721.64,695.53ZM628.78,602.7l.12.1-.17-.15-.55-1c-1.3-3.7-4.77-6.85-5.21-11.1,3.61,5.26,7,10.22,10.43,15.15a5.81,5.81,0,0,0,2.16,2,15.91,15.91,0,0,0,9.42,1.13c4.09-.82,6.26-3.92,4.6-7.42a44.22,44.22,0,0,0-8.49-12.73c-3.43-3.43-6.65-7-10-10.52l.59-.29L642,587.63c2.38-4-2.95-5.21-4.22-8.41l5.12,3.36,3-3.35-10.45-9.46.71-.36c4.07,3.12,8,6.41,12.26,9.29a9.66,9.66,0,0,1,4,4.86c.65,1.76,1.08,3.69,3.58,5l3.85-3.47c-1.37-1.74-2.57-3.27-3.78-4.79l.7-.39,4.9,4.28c4.36-1.2,4.85-2.39,2.22-5.27a18,18,0,0,0-3.11-2.55c-2.39-1.62-4.9-3.1-7.26-4.75-2.73-1.91-5.37-3.93-8-5.91l.61-.66,3.7,2.38c3.84,2.48,7.65,5,11.53,7.42a6.89,6.89,0,0,0,2.21.46c-3.35-3.34-7.89-5.13-11-8.41,4.06,1.93,7.92,4.08,11.73,6.3,1.4.82,2.74,1.46,4.24.64,2.44-1.34,5.19-1.58,8.18-1.5,2.7.08,3.78-1.07,4.14-3.35l-.1,0c2.41-.74,2.85-1.48,1.29-2.68a28.05,28.05,0,0,0-4.45-2.24c-3.56-1.76-7.16-3.45-10.65-5.31-1.73-.92-3.22-2.19-4.9-3.21-3.77-2.28-7.59-4.49-11.36-6.79a8.56,8.56,0,0,1-1.52-1.49l.39-.31,14.52,8.18c6.4-5.58,11.38-5,17.24,1.64a37.59,37.59,0,0,0,3.67,3.8c4.29,3.65,7.39,3.54,11-.26l-.08.05c1.2-2.16,1-2.88-1.33-5-1.9-1.74-3.72-3.54-5.67-5.4-1.09.42-2.4,1-3.77,1.43a11.06,11.06,0,0,1-8.21-.39c-6.7-2.7-13.68-5.46-20.71-6.58-12-1.91-24.13-2.59-36.2-3.76a35.53,35.53,0,0,0-3.88.16l14.06,6.76a9,9,0,0,1-4.55-.86c-4.38-1.93-8.7-3.95-13.08-5.88-1.3-.57-2.73-1.43-4.43,0L628.7,554l-.54.68c-1.29-.72-2.59-1.43-3.87-2.16L611.16,545a8.91,8.91,0,0,0-.8-.7s-.22.08-.33.12l.84.73,15.24,15.39-.72.55c-6.69-5.49-12.37-11.89-19.31-17.45-.38.74-.63,1-.6,1.19.13.92.31,1.84.53,2.76,3.12,13.4,4.88,26.71.65,39.6a3.53,3.53,0,0,0,0,2.67,47.39,47.39,0,0,0,5.52,8.57c2.72,3,7.71,3.24,11,.9-2.62-5.66-6.69-11-8.19-17.07a5.43,5.43,0,0,1,1.52,1.79c2.59,4.55,5,9.16,7.82,13.64.91,1.48,2.61,2.63,4,3.94C628.44,602,628.61,602.34,628.78,602.7Zm42,45.07.71,1.16c.29,2.07.57,4.14.87,6.33l5.9,3.71c.07.2.15.4.23.6l-.33-.57a33.65,33.65,0,0,0-.05-4.26,3.37,3.37,0,0,0-1.17-2c-1.75-1.33-3.67-2.5-5.53-3.74l-.71-1.17-.2-.17.24-.1C670.79,647.61,670.81,647.69,670.82,647.77Zm-76.34-24.25,0,.25v-.28l-.73-1.07c1.8.31,5.56,2.7,7.6,4.84l0,0c2.87.55,5.9.71,8.56,1.75s5,3,8.39,5.14c-.77-3.07-1.31-5.19-1.85-7.31l.64-.08c.85,1.52,1.71,3,2.86,5.08.7-3.23-.84-5.41-2.54-7.67-2.84-.11-5.48-.63-7.59-2.71a3.83,3.83,0,0,0-2.39-.71c-3.45,0-5.87-1.56-7.88-3.89-.84-1-1.6-2-2.46-3a11.72,11.72,0,0,0-3.24,8.59ZM702.56,551l.15-.2c0,.1-.07.19-.1.29l-1.32.17-4.57,1.26c.17-.57.15-.92.31-1,2.41-1.1,4.85-2.17,7.28-3.25l1.16-.46c1.22,1.48,2.45.54,3.68.31,5.59-1,8.44.18,11.42,4.82.69,1.08,1.32,2.19,2,3.25a8.2,8.2,0,0,0,5.5,3.5,124.51,124.51,0,0,1,12.51,3.43c2,.64,3.78,1.9,5.76,2.61,2.46.88,5,1.48,7.53,2.2.53.44,1.07.87,1.61,1.3a6.59,6.59,0,0,0,1.3,1.13,12.47,12.47,0,0,1,6.8,7.47c1.24,3.52,2.44,7.44,6.33,10.07.28-.28.65-.46.63-.65a6.53,6.53,0,0,0-.41-1.93C765.82,575,758.7,566.44,747,561.1q-13-5.94-26.12-11.8c-7.74-3.48-15.47-7-23.23-10.41-8.74-3.87-17.79-7.25-26.22-11.62-19.35-10-38.6-20.29-57.55-30.95-23.5-13.22-47.12-26.29-69.76-40.73-4.38-2.8-9-5.31-14.27-8.41l1.14,1.9-.51.28-9.28-5.79a53.19,53.19,0,0,1-8.8-6.34c-4-3.81-9.31-6.63-14.06-9.87l-1.58-1.29c-5.6-4.45-11.16-8.94-16.81-13.34a47.15,47.15,0,0,0-4.6-2.83l-1.58-1.3c-2.4-1.77-4.7-3.66-7.21-5.28-6.51-4.2-13.22-8.15-19.64-12.44a88.84,88.84,0,0,0-12.6-7.35c-3.18-1.44-6-2.15-9.25-1.39-4.82,8.67-6.71,18.22-8.16,27.87-.49,3.3,0,6.78,0,10.18l.24,2.59c.08.81.15,1.63.23,2.44l.46,1.82c.09,5.65,2.29,11,4.51,16.39,2.15,5.19,5.95,9.23,11.12,12.64a136.68,136.68,0,0,1,11.65,9.22c4.38,3.65,8.42,7.64,13,11.07,10.76,8.08,21.77,15.89,32.64,23.85,16.83,12.33,36,18.53,56.82,19.55,9,.44,17.33,2,25.13,6.58,1.45.85,3,1.49,4.52,2.32,9.18,5.23,19.3,7.5,29.58,8.64,14.95,1.66,29.93,2.83,44.89,4.16a59.23,59.23,0,0,1,23.84,7c4.49,2.5,8.17,2.31,11.82.06a37.14,37.14,0,0,0,4.12-3.44c.42.9,1.24,1.81,1.1,2.5-.71,3.61,2.11,5.34,5.36,7.3l3.67-3.12ZM459.44,480.2l-.17-.13.27.08,1.37,1.37,3.95,2.83,1.74,1.25,1.46,1.34,1.52,1.27c-.6.13-1.46.56-1.76.35-3.09-2.19-6.1-4.47-9.1-6.75-.6-.46-1.53-1.06-1.54-1.54,0-2.58-2.57-3.59-4.26-5.12-3.33-3-6.61-6-10-9s-6.5-5.84-10.23-8.11a30.38,30.38,0,0,1-13.33-15.7c-1.48-4-2.52-8.09-3.78-12.14-.44-1.41-.92-2.81-1.38-4.22l-.21-2.56c0-1.83.13-3.65.1-5.49-.22-10.66,2.42-20.68,5.87-30.52l-.08.07,3-6a37.49,37.49,0,0,0-4.91-.25c-10.26,1.1-20.15,3.15-28.59,8-15.43,8.81-28.93,19.6-42.5,30.31-7.15,5.65-9.33,13.31-9.62,21.67a16.65,16.65,0,0,0,1.75,7.51l.64-1.51.57-.19c.16,1,.77,2.26.4,3.08-1.21,2.74.54,4.67,2.74,6.29,3.76,2.79,7.76,5.33,11.63,8a70.27,70.27,0,0,1,7.32,5.27c4,3.6,7.69,7.44,11.49,11.2,7.7,7.6,15.17,15.4,23.16,22.77,4.79,4.42,10.33,8.26,15.64,12.25,4.1,3.08,8.47,5.89,12.56,9,4.34,3.28,8.49,6.76,12.76,10.12,14.83,11.65,29.76,23.18,42.68,36.53,11.32,11.68,23.58,22.7,33.11,35.58,3.18,4.3,6.72,8.42,10.19,12.57a234,234,0,0,0,43.52,39.7,40.94,40.94,0,0,1,5.7,5,153.58,153.58,0,0,0,24.81,20.77c4.09,2.81,8.83,3.73,13.57,4.79a5.81,5.81,0,0,0-2.45-1.58,27.34,27.34,0,0,1-15.66-12.17c-3.64-5.83-6.47-12-7-18.46-1-11.95-1.4-23.87,3.45-34.94,1-2.16,1.78-4.35,2.66-6.53,3.08-7.63,6-15.32,9.29-22.86a52.88,52.88,0,0,0,4.84-23.56,86.61,86.61,0,0,0-.87-11.12c-1.13-6.58-2.64-13.15-3.89-19.25-.81-.5-.94-.64-1.07-.65-7.75-.87-14.8-4.67-22.62-5.62-3.83-.47-7.59-2.56-11.35-4-.68-.26-1.18-.94-2.5-2l12.15,4.24c-2.77-2.12-5.87-3.5-8.81-5.12-5-2.76-10.29-3.8-16-4.18a157.51,157.51,0,0,1-22-2.57c-13.27-2.83-25.88-7.55-36.95-15.31-6.58-4.63-13.09-9.34-19.67-14-1.09-.78-2.34-1.38-3.52-2.06L468,487c-.49-.44-1-.89-1.47-1.33l-1.73-1.26-3.95-2.82C460.36,481.11,459.91,480.65,459.44,480.2ZM675.83,608.47l.06.09c-1.44-1.47-2.16-3.52-4.44-4.37l-2.07,7,8.78,3.73C679.05,612.12,679,609.94,675.83,608.47Zm-26.55,73,3.29-.33c-2-2.49-3.38-4.83-5.4-6.68-2.65-2.45-4.33-5.05-4.5-8.5-1,.25-2.47.32-2.53.69-.4,2.27-2.66,2.8-4.35,3.9-2.36,1.54-2.33,2.78-.57,5.31,2.11,3,5.89,4,8.78,6.1,2.19,1.56,4,1.21,5.39-.53Zm29.91-107.18a24.12,24.12,0,0,1-3.59.22c-2.81-.23-5,.86-7,2.06-.66.38-1.51,1.3-1.33,1.78,1.39,3.61.53,8.14,6.24,10.11a5.44,5.44,0,0,0,4.12-3.39,11.79,11.79,0,0,1,2.76-3.82c2.53-2.14,2-4.74,1.52-7.79l-2.79.85Zm-15.6,81.32c.93-2.62,3.88-1,5.83-1.58,1.19-2,.64-3.77-.84-5.49-4.87-.61-5.09-.72-7.88-4-.67-.77-1.32-1.55-2-2.33a8,8,0,0,0-6.46-2.91c-4.68.2-10-.39-12,4.44-.2.46-.71.79-1.1,1.17-3.76,3.64-2.79,7.41,3,10.45l2.68-9c9-.61,15,2.41,18.91,9.17a18.42,18.42,0,0,1-1.92,9.87c-1.63,3-3.47,3.63-7.28,2.18a38.91,38.91,0,0,1-4-2.15c-1.15-.6-2.33-1.16-3.46-1.73-2.43,3.48-2.15,5.69.65,8.12a26.37,26.37,0,0,1,2.45,2.39c2.51,2.85,3,3,6.77,2a57,57,0,0,0,4.78,4c1.7,1.15,3.45,1.45,4.36-.66.18-.42.73-.69,1.17-1.1l4.06,1.21c1.07-2.47,1.07-2.47,4.76-3.93a7.49,7.49,0,0,0-.53-1.48c-.91-1.5-2.7-2.93-.75-4.59.2-.17.07-.8-.14-1.13-1.12-1.8-1-3.19.68-4.58a2.65,2.65,0,0,0,.25-2.87,8.36,8.36,0,0,0-3.54-3A84.41,84.41,0,0,0,663.59,655.59Zm-57.9-62.46h-.19l.28,0c-1.87,1.45-1.89,3.21-.86,5.3a37.16,37.16,0,0,1,1.57,4.44l-.67.18-3.17-4.56c-1.19,2.61-2,4.91-3.24,7-1.89,3.24-1.08,6.29,1.26,9.38,2.69,3.57,4.58,4.07,8.64,2.14.44.51.9,1,1.34,1.57,3,3.63,5.92,3.53,8-.15a9.2,9.2,0,0,1,6.92-4.7c2.91-.53,5.1.68,7.41,1.67,2,.86,3.12.66,4-.93,1.18-2.19,1.07-3.18-1.29-4.28a29.7,29.7,0,0,1-9.14-6.58c-.58-.6-1.3-1.12-1.85-1.59-8.34,2.32-13.18.52-17.53-6.35C606.62,594.86,606.18,594,605.69,593.13Zm.44,65.44.35.58-14,4.06c.48,3.3,2.3,6.48,4,9.72a6,6,0,0,0,5.08,3.19c1.68.19,3.36.51,5,.77l0,.7-5.29.26c0,.3,0,.59,0,.88l13,2.79-.11.72-7.69-.48c4,1.47,6.4,3.62,7.65,7.12,2,5.48,7.57,7.63,12.94,8.15a21,21,0,0,1,12.59,5.66A31.13,31.13,0,0,0,644,706a3.25,3.25,0,0,0,4.13-.22c3.12-2.8,2-6.1-2.52-7.47-3.11-.95-6.33-1.67-9.17-3.42,4.33.23,8.4,2.3,13,2.34-.39-2.87-3-2.39-4.52-2.91-2-.69-4.22-.88-6.33-1.4-1.74-.43-3.45-1-5.17-1.52l.22-.79,16.51,3.12c-.83-7-5.06-10-12.08-11.58-3.77-.83-7.61-1.29-11.41-2-3.22-.58-6.43-1.24-9.65-1.86l.09-1,17.31,2.15c-2.09-2.79-2.09-2.8-4.69-3s-5.17-.41-7.75-.61c0-.27,0-.54,0-.81l9.17-.29c.14-1.42.27-2.78.45-4.57l-15.7-.34c4.5-1.64,9.35-1.55,14.14-1.14,2.82.25,5,0,6.64-1.71-.6-3.49-3.39-4.58-6.63-5.17-4.21-.77-7.71-2.24-8.34-6.24l-7.51-.13.06.09a18.15,18.15,0,0,1,4-1.13c3.71-.22,6.4-1.86,8.89-3.86,1.07-.86,2.56-1.94,1-3.24a9,9,0,0,0-4.5-1.47c-.91-.1-1.83.71-2.79,1-1.23.42-2.59,1.31-3.73,1.07-5.51-1.15-10.08,1-15.08,1.65-1.22.14-2.45.23-3.67.34l-.2-.74,11-2.78c-3-4.12-6.35-.33-10.26-2l8.09-2c.27-1.68.45-3.23.78-4.74.85-3.91-1.45-6.57-6-6.71s-8.06,2.3-12.15,3.35l.36,1.08,8-.77.2.55-6.73,2.11-.78-.06.28.42.44-.45,7.71.21.12.66-9.11,1.12a42.38,42.38,0,0,0,3.1,22.12Zm101.66,32.69c1.83,1.73,3.64,3.48,5.5,5.19,1,.87,2,2.2,3.36.86,1.14-1.12-.26-1.87-1.16-2.6-3.51-2.84-7-5.66-10.52-8.51-.83-.67-1.54-1.46-2.3-2.2l.66-.62,14.4,10.71c2.37-.2,4.18-.81,5.73-.39a8.1,8.1,0,0,0,8.75-2.43c-.73-2-2.1-3.79-1.8-5.23.51-2.48-.64-4.07-2.58-5.65-2.87-2.35-4.67-4.94-3.51-7.71l-4.85-6.1.61-.27c1.17,1.14,2.27,2.34,3.51,3.41,1.45,1.25,2.73,1.23,3.73-.56L720.08,663l.6-.62,8.94,6.26.7-.7-14.17-11.8a6.32,6.32,0,0,1,3.55,1.37c4.55,3.5,8.94,7.16,13.61,10.53a32.48,32.48,0,0,1,8.77,9.74,58.56,58.56,0,0,0,4.07,6.08c3.42,4.28,7.91,4.3,10.29-.05a7.42,7.42,0,0,0,.69-4.89A12.14,12.14,0,0,0,750.5,670c-5.33-2.83-10.22-6.36-15.3-9.59l.47-.68c1.06.49,2.18.91,3.17,1.49,4.49,2.64,8.93,5.34,13.43,8a8.19,8.19,0,0,0,2.18.53l.36-.7-8-5.36a12.46,12.46,0,0,1,5.59,2c2.93,2.05,5.33,2.22,8.2.39a16.19,16.19,0,0,1,6.57-2c5.55-.66,8.32-4,6.71-8.8-.69-2.08-1.87-4.07-2.57-6.14a28.81,28.81,0,0,1-1.82-7c-.36-4.92,1.72-7,7.27-8,3.37-.6,5.45-3.35,3.84-6.15a31.48,31.48,0,0,0-6.56-8c-1.21-1.05-4-.8-6.1-1-2.91-.29-5.82-.42-8.72-.69a21.59,21.59,0,0,1-2.71-.61l.06-.63,15.38.61c.35-2.79-1.2-3.3-3.56-3.27-6.85.07-13.71.08-20.57.08a26.62,26.62,0,0,1-2.77-.3l0-.77,25.91-.88c1.22-1.83,2.31-3.32,3.23-4.9s4-1.87,3.25-4.55a112.07,112.07,0,0,1-23,.79,84.71,84.71,0,0,1,10.92-1.42c3.64-.32,7.51,0,10.86-1.36-2.42-5.49-4.23-7-9.77-8.42a7.42,7.42,0,0,1-5.44-4.78c-.63-1.65-1.36-3.61-.93-5.09,1.74-6-1.7-9.51-7.51-12.7-4.84-2.64-8.84-3-12.86-.09a14.63,14.63,0,0,1-2.06,1.4c-2.9,1.43-5.33.59-6.58-2.29a14.11,14.11,0,0,1-.87-3.14c-.41-2.18-1.64-3.54-4.12-4.6a17.81,17.81,0,0,1-5.25-4c-1.12-1.13-1.67-2.65-2.54-4-2.35-3.58-4.7-4.54-8.83-3.24a24.23,24.23,0,0,0-5.66,2.85,55.11,55.11,0,0,0-4.7,3.65,5.18,5.18,0,0,1-1.89,6.58c-4.07,3.07-8.83,3-13.16-.51a65.26,65.26,0,0,1-5.84-6c-1.73-1.86-3.66-3.16-6.65-2.83,1.93,1.94,3.88,3.47,5.16,5.31a12,12,0,0,0,5.28,4.52c3,1.3,4.59,3.69,3.35,5.58-1.78,2.72-.18,5.68-.82,8.42,0,.18,1,.65,2.07,1.28-1.14-3.37-1.14-3.37,0-5.05,2.61,4.92,4.68,6.1,10.85,5.92a24.62,24.62,0,0,1,12.1,2.39,15.92,15.92,0,0,0,4.86,1.48c2.53.35,3.93-.79,3.25-2.94a15,15,0,0,0-3.3-5.76c-4.72-4.88-15.05-7.28-21.33-5.12a39,39,0,0,0-5.16,2.67c-.84-1.86,0-2.88,1.52-3.68a15.07,15.07,0,0,1,9.44-1.86,52.13,52.13,0,0,1,10.35,2.36c3,1.07,4.91.76,6.87-1,1.75-1.56,3.74-2.92,5.63-4.37l.81.72-8.35,7.1c4.58,3,6.21,7,6.54,11.82l10.08-4.36.34.78c-6.82,3.83-13.38,8.42-22.73,4.07l8.91,8.06c5.79-1.52,7.88-.92,11.86,3.54.68.76,1.29,1.58,1.9,2.39,3.75,5,6,10.24,5.6,16.13l8.31,2-.13.74c-2.07-.29-4.14-.64-6.21-.87-2.22-.26-3.43.38-2.81,2.56l13.11,1.8a5.06,5.06,0,0,1-3.09.65c-5-.24-10-1.65-15-.83-2.67.43-3.72-.58-5.4-3.12-3.27-4.94-6.7-9.82-10.05-14.7L712,604.8c9.73,7.9,13.74,16.76,9.2,27.08l.1-.06c-2.2,1.39-4.06,3.76-7.2,3.08-2.72-.59-5.25-2.17-7.69-3.23l-5.34,6.63c1.92,1.83,5.36.31,6.92,2.89-4,.7-8.22-2.59-12-.23a18.89,18.89,0,0,0,3.1.66c2.7.65,5.39,1.33,8,2.16,1.66.51,2.53,1.57,2.2,3.16-.65,3.13-.57,6.54-4.26,8.15l3.39,3.86-.25.1c-1.6-1.09-3.16-2.23-4.81-3.26a33.92,33.92,0,0,0-3.21-1.54c-.05,5,2.2,8.77,5.69,11.89,3.17,2.83,4.82,5.71,4,9.21l14.54,11.48-.64.67c-5.15-3.31-9.78-7.22-14.17-10.52-3,.74-5.42,1.94-8,1.89-4.76-.11-9.43-1.29-13.29-4.48a30.68,30.68,0,0,1-9.19-11.88v0a9.69,9.69,0,0,1-.61,1.84c-1.9,3.36-1.78,4.21,1.31,7.29,1.68,1.67,3.39,3.32,5.08,5,1,1,2.05,2,3.07,3.06l-.8.61-9.88-8.93c.35,1.13.44,1.49.58,1.84,1.4,3.42,1.07,3.14-1.57,5.54-2.17,2-3.94,3.84-7.65,2.86-.21-.06-.5.22-.75.34-4.16,2-5.13,2-8.74-.85-1.74-1.38-3.29-2.09-5.55-1.25.4.42.94.77,1.13,1.22,1.82,4.08,5,6.86,9.73,8.59a6.18,6.18,0,0,1,2.87,2.93,3.89,3.89,0,0,0,3.35,2.5,19.65,19.65,0,0,0,11.07-1.66l-6.66-5.23c.19-.2.38-.41.58-.61l6.64,4.06c-1.3-5.14-7.24-5.25-10.1-8.81a13.59,13.59,0,0,1,2.66.82,18.93,18.93,0,0,0,11.83,2.85,7,7,0,0,1,1.37,0c8.09.86,12,4.1,13.51,11a29,29,0,0,0,1,3.93A3.67,3.67,0,0,0,706.9,704c3.24-.52,6.44-1.23,7.91-3.76l-7.66-8.65Zm-8.32-85.43a8.14,8.14,0,0,1-.63.88c-2.93,3-3,4.45.08,7.54A26.7,26.7,0,0,1,706,625.77a10.14,10.14,0,0,0,5.35,6.06c2.72,1.48,4.48,1.35,6.44-.59s3.36-4.51,2.83-7.46a54.39,54.39,0,0,0-1.85-7.06c-1.74-5.42-5.6-9.1-12-10.65-1.53-.37-3-1-4.53-1.45l.18-1,6.17.27a21.5,21.5,0,0,0,2.42-1.68c1.22-1.15,3-2.21,3.37-3.63,1.64-6-8.23-15.66-15.63-15.61a3.49,3.49,0,0,1-.44.05c-2.24-.3-4.63-.23-6.68-1-6.13-2.3-9.22-.78-11.7,3.72a9.57,9.57,0,0,1-4.48,4.4c-4.4,2.1-5.41,6.37-2.84,10.48a28.86,28.86,0,0,0,12.25,11.19c3.52,1.72,6.34,2.47,9.76,1.68C694.18,607.37,695.3,605.59,699.47,605.83Zm-40.85,14.92a8.09,8.09,0,0,1,1.47.09c2.53.61,4.56.28,5.72-1.78s.22-3.78-1.49-5.47c-.78-.78-1.42-1.65-1.91-2.23,2-1.53,4.3-2.52,5.34-4.16,1.71-2.68-2.35-6.12,0-9.05.33-.42-.13-1.72-.68-2.26-2.6-2.52-5-5.62-9.4-5.34a6.85,6.85,0,0,1-5.36-1.89c-2-1.73-4.1-3.34-6.4-5.19-1.83,4.06.37,7.46,2.32,10.86a64.75,64.75,0,0,1,3.67,6.21c2.26,5.15-.63,9.59-6.63,10.48-1.62.24-3.29.27-4.91.39-.08.86.14,1.8-.27,2.37-1.71,2.4-.23,4.62,1.21,6.72,2.1,3,4.74,3.3,7.63,1,.28-.23.82-.22,1.05-.28L656,624ZM697,676.08a36.75,36.75,0,0,0,5.11.6c2.42,0,4.42-1,5.18-3s-.37-3.48-2.07-5c-3.81-3.48-6.72-7.38-7.46-12.13a9.31,9.31,0,0,0-.92-2.72,7.25,7.25,0,0,0-7.92-3.9,31.67,31.67,0,0,0-7,2.14,2.89,2.89,0,0,0-1.36,2.52c.16,2.63.1,5.44,1.22,7.88C684.44,668.43,688.54,673.61,697,676.08Zm-57-36.92c2.28-8-1.46-16.84-9.29-22.35-3.36-2.37-7.43-1.7-9,1.46-1.21,2.42-.34,4.6,1.62,6.69a20.37,20.37,0,0,1,5.8,14.3,23.7,23.7,0,0,0,.17,2.78c.41,3.13,2.63,4.23,5.75,2.81A9.58,9.58,0,0,0,640,639.16Zm10.53-15c-3.62,2-4.08,3.13-2.59,6.2a6.76,6.76,0,0,0,1.77,2.41c5.44,4.21,11.4,8,15.09,13.28,4.39-.47,6-2.61,6-5.76.06-6-3-10.9-9.1-14.4a4.13,4.13,0,0,0-2.92-.47C655.83,626.82,653.23,625.83,650.48,624.18Zm78.27-6.57c1.75-.11,4.14.8,4.69-1.9,1.59-7.72-2-14.27-8-20.25a6.59,6.59,0,0,0-2.29-1.42c-3.12-1.13-5.87.46-5.71,3.24a17,17,0,0,0,3.88,10.62C723.8,610.89,726,614.05,728.75,617.61ZM623.2,629.12c-.33.79-.55,1.22-.7,1.67-1.73,5.35-4.65,5.88-9.61,1.8-1.15-1-2.25-2.25-4.77-1.65,3.16,2.79,3.23,5.55,2.14,8.42a7.36,7.36,0,0,0-.37,2.7,2.66,2.66,0,0,0,2.22,2.78c2.39.65,4.65,1.35,7,.24a69.23,69.23,0,0,1,7.6-2.49,43.28,43.28,0,0,0-.17-4.35c-.19-1.4-.32-3.75-1.12-4-3.32-1.2,1.14-2.67-.83-3.69C624.18,630.27,623.88,629.78,623.2,629.12Zm57,11.7a18.19,18.19,0,0,1,3.17.38,14.46,14.46,0,0,1,7,4.86,15.07,15.07,0,0,0,2.72,2.13c1-4.82,1-4.82-1-7.19.53,1.69.83,2.67,1.13,3.65-1.82-.75-2.9-1.93-4.24-2.78-2.66-1.7-5.41-3.31-8.24-4.75a4.13,4.13,0,0,0-3-.09c-3.7,1.65-5,4.91-5.69,8.21-.53,2.42,2.48,3.57,4.21,5.1a25.31,25.31,0,0,0,2.11,1.47l10.48-4.64C687.39,644,683.73,643.26,680.22,640.82Zm.14-18.55c-.44-.67-.55-1-.74-1.1a10.08,10.08,0,0,0-9.07,2c-2.13,1.61-.38,3.95.52,5.89a34.62,34.62,0,0,0,2.82,4.33l15.23-1a19.11,19.11,0,0,0-1.94-2.58c-1.45-1.39-3.4-2.49-4.49-4-1.53-2.16-3.43-2.22-5.6-1.94-1.36.17-2.67.53-4.94,1C674.59,622.07,677.46,622.47,680.36,622.27ZM652.94,664.5c1.14-3.83,2.26-7.15,3.07-10.54.27-1.15.13-3.33-.49-3.59a43.72,43.72,0,0,0-8.26-2.29c-.5-.1-1.6.79-1.69,1.38a31.9,31.9,0,0,0-.69,8.09c.12,1.32,1.66,2.85,2.94,4A34.43,34.43,0,0,0,652.94,664.5Zm-19.1-16.9c-.52.13-1.46.13-1.56.41-1,2.88-3.7,4.42-6.1,6.25s-1.8,3.33,1.18,4.44a12.52,12.52,0,0,0,2.23.62c3.92.64,7.32,2.08,9.63,5.23,3.43-.93,3.47-3.34,3.58-5.67,0-.44-.43-.94-.66-1.41l-3.23,1.11Zm46.94-34.74c.22,4,.67,7.39,2.54,10.61a6.38,6.38,0,0,0,3.16,2.73c1.84.56,2.44-1,2.87-2.23.84-2.46,2.83-3.39,5.82-3,.68.09,1.37.07,2.09.1-1-5.12-1-5.12-3.62-5.11.45.82.9,1.63,1.24,2.23Zm22.58,14.23c.65-3.23-2.09-3.15-4.24-3.57-7-1.37-8.33-.52-8.87,5.49-.18,2,.69,3.44,3,4,2.81.71,5.67,1.22,8.88,1.9.68-1.91,1.28-3.57,2-5.47a66,66,0,0,0-6.16-2.73,47.31,47.31,0,0,0-5.85-1.17C696.11,623.5,699.64,625.82,703.36,627.09Zm4.5,19.19c-5.53-2.66-8.16-3.21-12-2.69-.15,4.29.15,5.35,1.78,7.27a7.17,7.17,0,0,0,6.2,2.3c2-.1,2.44-1.58,2.84-3C707.05,648.92,707.44,647.69,707.86,646.28Zm-48.35,6c-3.08,6.45-4.2,11.11-3.43,15,1.36-.79,2.95-1.19,3.42-2.09C661.54,661.29,662.61,657.21,659.51,652.29ZM527.88,446.21l-.34,0c0,.08,0,.21,0,.22a.94.94,0,0,0,.34,0Z" transform="translate(-334.7 -379.13)"/><path class="cls-1" d="M489.48,559.28c.4.23.81.44,1.2.68,4.56,2.69,7.44,1.86,8.71-2.44a3.08,3.08,0,0,0-1.13-3.64,8.57,8.57,0,0,1-2.78-3.8l2.49,1.7a16.1,16.1,0,0,0-6.51-6.91c-2.35-1.46-4.34-1.36-6,.52a42.47,42.47,0,0,0-3.65,5.38c-.75-3.27,2-7.64,5.46-8.1a7.8,7.8,0,0,1,4.37.8c4.09,2.29,7.53,5.28,9.12,9.3a11.12,11.12,0,0,0,3.57,4.73Q518.93,569.21,533.5,581a3.85,3.85,0,0,1,1.31,1.66c-12.1-7.42-22.23-16.8-33.32-25.86-1.6,2.53-1.79,6.12-5.95,6.1a8.12,8.12,0,0,1-6.77-3.24Z" transform="translate(-334.7 -379.13)"/><path class="cls-1" d="M384.58,425.51l2.57,3.55c4.59,6.31.77,13.06-7.48,13a73.93,73.93,0,0,1-10-.86c-3.31-.48-5.88-2.1-6.51-5.18s0-6.16,3-7.94a16,16,0,0,1,6.13-2C376.41,425.6,380.66,425.65,384.58,425.51Zm-15.36,14.34c4.08.17,8.22.65,12.22.42a6.23,6.23,0,0,0,5.54-7.85c-.69-2.32-2-4.84-4.8-5.17-5.34-.63-10.74-.46-15.09,2.3-2.32,1.47-2.68,3.83-2,6.34C365.56,437.79,367,439,369.22,439.85Z" transform="translate(-334.7 -379.13)"/><path class="cls-1" d="M392.16,412.13c-2.85-2.94-3.18-5.31-1.08-7.79a11.07,11.07,0,0,1,10.84-3,10.67,10.67,0,0,1,7.35,8.46c.15,1.32.11,2.65.23,4,.38,4.27-.61,6-3.9,6.86A10.73,10.73,0,0,1,395.34,417c-1.22-1.6-2.17-3.34-3.25-5,1.75,1.53,3.59,3,5.22,4.63a8.83,8.83,0,0,0,6.13,2.7c2.48.09,4.56-1.34,4.52-3.35a34.88,34.88,0,0,0-.77-7.53c-.89-3.71-5.06-6.29-8.89-5.85-4.8.54-7.3,3.44-6.52,7.55C391.91,410.83,392,411.48,392.16,412.13Z" transform="translate(-334.7 -379.13)"/><path class="cls-1" d="M579.66,579c-.93,3.47-4.92,4.81-8.82,2.7a28.15,28.15,0,0,1-5.32-4.08,2.68,2.68,0,0,1-.69-2.15c.53-3.25,5.41-5.68,9.24-4.71S580.6,575.48,579.66,579Zm-13.75-2.9c3.85,3.81,4.77,4.43,7.06,4.92,2.61.56,4.71-.34,5.29-2.26a5.32,5.32,0,0,0-2.48-5.69,6.07,6.07,0,0,0-6.73-.13A26.07,26.07,0,0,0,565.91,576.06Z" transform="translate(-334.7 -379.13)"/><path class="cls-1" d="M415,501.33c3.66,3.7,7.71,6.06,13.1,6.33a7.93,7.93,0,0,0-4.33-8.84c-2.26-1.22-4.31-1-7.82,1.32.34-1.14.29-2,.74-2.31,2-1.62,5.35-1.67,8,0,3.29,2.05,5.19,4.86,5.48,8.25.17,2.05-1,3.26-3,2.93-4.7-.73-8.95-2.41-11.74-6.22A4.19,4.19,0,0,1,415,501.33Z" transform="translate(-334.7 -379.13)"/><path class="cls-1" d="M472.1,498c.21,2.56-.46,4.19-2.73,4.79a6.71,6.71,0,0,1-6.08-1.17,46.65,46.65,0,0,1-4.21-4c-1.06-1.1-1.83-2.37-.67-3.6a3.52,3.52,0,0,1,4.11-.62,47,47,0,0,1,7.27,3.56c-3.51.41-6.21-3.56-10.18-1.87a10.67,10.67,0,0,0,6.48,6.13C469.52,502.46,470.18,499.63,472.1,498Z" transform="translate(-334.7 -379.13)"/><path class="cls-1" d="M407.19,469.67l19.45,14.78C422.48,483.32,412.31,475.89,407.19,469.67Z" transform="translate(-334.7 -379.13)"/><path class="cls-1" d="M418.11,516.47c-8-4.2-14.28-10.11-20.51-16.05-.26-.25-.22-.72-.32-1.08l-.1.06a4.61,4.61,0,0,1,1.26.5q10.17,8.1,20.29,16.24Z" transform="translate(-334.7 -379.13)"/><path class="cls-1" d="M394.1,462.9a25.31,25.31,0,0,1,3.91,3,3.09,3.09,0,0,1,.65,2.84,3.3,3.3,0,0,1-2.65,1.5,4.43,4.43,0,0,1-2.74-1.85C392.08,466.46,392,464.54,394.1,462.9Zm0,2.17c0,.87-.1,1.32.11,1.59a14.4,14.4,0,0,0,2,1.93s.94-.5.89-.61a9.51,9.51,0,0,0-1.27-2C395.58,465.7,395.06,465.57,394.13,465.07Z" transform="translate(-334.7 -379.13)"/><path class="cls-1" d="M409.06,466l15.77,13.23C421.23,478.14,412.75,471.34,409.06,466Z" transform="translate(-334.7 -379.13)"/><path class="cls-1" d="M582.46,637.07c-.26-8.23,3.11-15.32,5.91-22.57Z" transform="translate(-334.7 -379.13)"/><path class="cls-1" d="M563.54,633.72l15.06,10.66C575.23,644,569.92,640.44,563.54,633.72Z" transform="translate(-334.7 -379.13)"/><path class="cls-1" d="M557.65,607.45l16.34,12c-3.35-.51-11.31-6-16.85-11.78Z" transform="translate(-334.7 -379.13)"/><path class="cls-1" d="M549.69,622.33l4.24-.63c-2.9-2.6-4-2.59-8,.23.25-1.11.15-1.94.57-2.31,1.74-1.51,4-1.42,6.31-.6,1.32.47,2.74,1.11,2.48,2.58s-1.76,1.85-3.43,1.56A15.36,15.36,0,0,1,549.69,622.33Z" transform="translate(-334.7 -379.13)"/><path class="cls-1" d="M381.55,478.19c-1.8-.33-3.27-.32-4.39-.88-.89-.45-1.9-1.69-1.83-2.42s1.33-1.51,2.28-1.73a2.72,2.72,0,0,1,3.22,1.72A23.28,23.28,0,0,1,381.55,478.19Zm-3.17-1.53,1.12-.55-1.32-1.75c-.39.26-1.17.65-1.11.75A9.15,9.15,0,0,0,378.38,476.66Z" transform="translate(-334.7 -379.13)"/><path class="cls-1" d="M369.49,451.18l-2.68.82.25.84,4.3-.26c.12,1.85-1.34,2.25-2.89,1.95a9.19,9.19,0,0,1-3.41-1.79c-.24-.17,0-1.28.41-1.65C366.53,450.12,367.82,449.66,369.49,451.18Z" transform="translate(-334.7 -379.13)"/><path class="cls-1" d="M397.89,445.72c1.94.37,2.77,1.38,2.4,2.89s-2.41,2.35-3.79,1.92a3.33,3.33,0,0,1-2-3.71C395,445.25,396.24,445,397.89,445.72Zm-1,3.5c1.64-.34,2.3-1,1.42-2.26a1.53,1.53,0,0,0-1.15-.52C395.73,447,395.88,447.9,396.89,449.22Z" transform="translate(-334.7 -379.13)"/><path class="cls-1" d="M397.16,388.11,408.65,384c.57.57.75.67.76.78a.35.35,0,0,1-.22.31l-11.74,3.43C397.36,388.39,397.26,388.25,397.16,388.11Z" transform="translate(-334.7 -379.13)"/><path class="cls-1" d="M601.75,556.29,599.08,544c2.13,2.24,3.29,8.13,3,12.14Z" transform="translate(-334.7 -379.13)"/><path class="cls-1" d="M561.66,606.38c1.32,1,2.66,1.87,4,2.84,2.22,1.65,4.42,3.32,6.65,5-3.06-.23-7.82-3.8-10.53-7.87Z" transform="translate(-334.7 -379.13)"/><path class="cls-1" d="M418.73,516.14l10.9,8.17c-3-.77-3-.77-6.39-3.58l-5.13-4.26Z" transform="translate(-334.7 -379.13)"/><path class="cls-1" d="M582.77,662.24q-1.34-5.49-2.65-11l1.22-.12,2.53,11Z" transform="translate(-334.7 -379.13)"/><path class="cls-1" d="M423,454.19A23,23,0,0,1,416.43,444l.52-.19,6.72,10.11Z" transform="translate(-334.7 -379.13)"/><path class="cls-1" d="M569.35,633.74l11.27,7.93c-3.82-1-7.4-3.42-11.78-7.67Z" transform="translate(-334.7 -379.13)"/><path class="cls-1" d="M423.67,453.88l8.89,7.2c-3.84-1.62-7.41-3.52-9.55-6.89Z" transform="translate(-334.7 -379.13)"/><path class="cls-1" d="M527.3,616.73l-7.18-8.63.57-.27,7.14,8.64Z" transform="translate(-334.7 -379.13)"/><path class="cls-1" d="M527.56,537.53c4.08-1.26,5.83-.32,7,3.7a24.38,24.38,0,0,0-3.11-2.5A24.93,24.93,0,0,0,527.56,537.53Z" transform="translate(-334.7 -379.13)"/><path class="cls-1" d="M370.93,403.87l8.84-6.22c.09.13.17.27.26.41l-8.73,6.33Z" transform="translate(-334.7 -379.13)"/><path class="cls-1" d="M463.85,552.14l-8.05-6.91a22.76,22.76,0,0,1,8.68,6.6Z" transform="translate(-334.7 -379.13)"/><path class="cls-1" d="M548,638.5l-6.56-6.3c3.75.93,4.7,4.06,7.18,6Z" transform="translate(-334.7 -379.13)"/><path class="cls-1" d="M445.1,536.2l5.17,3.87-.57.62-5.33-3.8Z" transform="translate(-334.7 -379.13)"/><path class="cls-1" d="M592.86,603.11l2.49-8.38.69.21-2.5,8.4Z" transform="translate(-334.7 -379.13)"/><path class="cls-1" d="M543.09,524.58l-6.36-1.09.08-.9,6.43,1Z" transform="translate(-334.7 -379.13)"/><path class="cls-1" d="M512,599.21l-5.61-5.36.85-.63,5.51,5.62Z" transform="translate(-334.7 -379.13)"/><path class="cls-1" d="M520.12,608.1l-5.85-6.6.74-.36,5.68,6.69Z" transform="translate(-334.7 -379.13)"/><path class="cls-1" d="M589.2,676.11,585.57,670l1-.41a26.14,26.14,0,0,1,3.34,6.16Z" transform="translate(-334.7 -379.13)"/><path class="cls-1" d="M580.46,668.13l5.45,5-.67.54a15,15,0,0,1-5.36-5.22Z" transform="translate(-334.7 -379.13)"/><path class="cls-1" d="M414,423.46l-.69,2.31c-1.85-2.37-1.33-4.84-1-7.35Z" transform="translate(-334.7 -379.13)"/><path class="cls-1" d="M515.83,562.21l6.3,4.68-.68.7-6.26-5.05Z" transform="translate(-334.7 -379.13)"/><path class="cls-1" d="M347.2,422.23l3.93-4.61C350.27,420.67,350.09,420.91,347.2,422.23Z" transform="translate(-334.7 -379.13)"/><path class="cls-1" d="M358.88,411.73l6.07-3.86.38.56-6,3.88Z" transform="translate(-334.7 -379.13)"/><path class="cls-1" d="M371.3,404.39l-6,4-.38-.56,6-4Z" transform="translate(-334.7 -379.13)"/><ellipse class="cls-1" cx="516.45" cy="518.13" rx="0.36" ry="5.63" transform="translate(-462.19 486.15) rotate(-73.42)"/><path class="cls-1" d="M548.57,638.18l4.93,3.59-.68.68-4.87-4Z" transform="translate(-334.7 -379.13)"/><path class="cls-1" d="M419.92,387.45l-2.72,4.22c0-2.4.18-3.86,1.67-4.92a10.56,10.56,0,0,1,1,.78Z" transform="translate(-334.7 -379.13)"/><path class="cls-1" d="M476.45,562.56l-3.36-2.95.59-.55,3.68,2.93Z" transform="translate(-334.7 -379.13)"/><path class="cls-1" d="M550.05,523.82l4.51.33V525l-4.51-.35Z" transform="translate(-334.7 -379.13)"/><path class="cls-1" d="M438.44,532.25l-3.18-2.92.6-.52,3.46,2.89Z" transform="translate(-334.7 -379.13)"/><path class="cls-1" d="M515.19,562.54l-4.69-3.85.66-.32,4.67,3.84Z" transform="translate(-334.7 -379.13)"/><path class="cls-1" d="M561.35,650.15l2.13,2.73-.72.44-2.38-2.72Z" transform="translate(-334.7 -379.13)"/><path class="cls-1" d="M598.14,551.27l-1.4-3.59,1.09-.2c.34,1.18.69,2.36,1,3.54Z" transform="translate(-334.7 -379.13)"/><path class="cls-1" d="M359.3,412.31,356.63,415l-.86-.68,3.11-2.56Z" transform="translate(-334.7 -379.13)"/><path class="cls-1" d="M464.48,551.83l3.49,2.76a4.58,4.58,0,0,1-4.12-2.45Z" transform="translate(-334.7 -379.13)"/><path class="cls-1" d="M599.26,552.81l.33,4.39.08,0c-.34-1.37-.68-2.75-1-4.12Z" transform="translate(-334.7 -379.13)"/><path class="cls-1" d="M527.83,616.47l2.95,3.29-.63.31-2.85-3.34Z" transform="translate(-334.7 -379.13)"/><path class="cls-1" d="M579.88,668.43l-2.4-2.58.78-.45,2.2,2.73Z" transform="translate(-334.7 -379.13)"/><path class="cls-1" d="M438.45,466.43l2.81,2.38c-2.26.18-2.67-1.15-3.4-2.11Z" transform="translate(-334.7 -379.13)"/><path class="cls-1" d="M600.33,580.4v-3.08l.95.16-.51,2.79Z" transform="translate(-334.7 -379.13)"/><path class="cls-1" d="M600.34,584.35c0-1.32,0-2.63,0-4l.43-.13-.45,4.09Z" transform="translate(-334.7 -379.13)"/><path class="cls-1" d="M590.57,676.83c.58.7,1.17,1.39,1.76,2.09l-.67.43c-.57-.75-1.15-1.49-1.73-2.24Z" transform="translate(-334.7 -379.13)"/><path class="cls-1" d="M396.29,389l-2.22,1.47-.59-.72,2.58-1.12Z" transform="translate(-334.7 -379.13)"/><path class="cls-1" d="M339.71,437.91l.68-2.27.61.15-.44,2.43Z" transform="translate(-334.7 -379.13)"/><path class="cls-1" d="M579.42,660.76,578.09,658l.68-.23c.36.92.71,1.84,1.07,2.77Z" transform="translate(-334.7 -379.13)"/><path class="cls-1" d="M486.24,569.32c.33.42.65.84,1,1.25l-.52.29-1-1.24Z" transform="translate(-334.7 -379.13)"/><path class="cls-1" d="M514.27,601.5,512,599.21l.75-.37,2.28,2.3Z" transform="translate(-334.7 -379.13)"/><path class="cls-1" d="M533,622.07l2,1.7-.56.55-2-1.93Z" transform="translate(-334.7 -379.13)"/><path class="cls-1" d="M532.37,622.39l-2.22-2.32.63-.31,2.25,2.31Z" transform="translate(-334.7 -379.13)"/><path class="cls-1" d="M557.14,607.72l-1.83-1.66.45-.4,1.89,1.79Z" transform="translate(-334.7 -379.13)"/><path class="cls-1" d="M339.59,447.26l-.26-1.67.66,0c.05.5.11,1,.17,1.51Z" transform="translate(-334.7 -379.13)"/><path class="cls-1" d="M510.5,558.69l-.93-1.14,1.59.82Z" transform="translate(-334.7 -379.13)"/><path class="cls-1" d="M416.43,444c-.21-.46-.43-.92-.63-1.39a1.82,1.82,0,0,1,.37-.13c.27.44.52.88.78,1.33Z" transform="translate(-334.7 -379.13)"/><path class="cls-1" d="M578.09,658c0-.69-.07-1.39-.1-2.08l.67.06c0,.6.07,1.19.11,1.79Z" transform="translate(-334.7 -379.13)"/><path class="cls-1" d="M437.86,466.7l-1.08-1.08c.12-.06.31-.19.36-.16.45.31.88.64,1.31,1Z" transform="translate(-334.7 -379.13)"/><path class="cls-1" d="M567.25,632.72l-.81-.94,1.14.78Z" transform="translate(-334.7 -379.13)"/><path class="cls-1" d="M568.84,634l-1.59-1.28.33-.16,1.77,1.18Z" transform="translate(-334.7 -379.13)"/><path class="cls-1" d="M598.64,553c-.16-.59-.33-1.18-.5-1.77l.72-.25c.14.59.27,1.19.4,1.79Z" transform="translate(-334.7 -379.13)"/><path class="cls-1" d="M600.31,584.36l.47,1.11h-.65l.21-1.13Z" transform="translate(-334.7 -379.13)"/><path class="cls-1" d="M488.77,559.64l-.61-1,1.32.64Z" transform="translate(-334.7 -379.13)"/><path class="cls-1" d="M343.18,429.33l-.39,1.08-.54-.36,1-.64Z" transform="translate(-334.7 -379.13)"/><path class="cls-1" d="M561.74,606.35l-.31-.37c.08,0,.2.06.22.11a.7.7,0,0,1,0,.29Z" transform="translate(-334.7 -379.13)"/><path class="cls-1" d="M379.77,397.65l.68-.32-.42.72Z" transform="translate(-334.7 -379.13)"/><path class="cls-1" d="M397.45,388.54l-1.16.43-.23-.37,1.1-.49C397.26,388.25,397.36,388.39,397.45,388.54Z" transform="translate(-334.7 -379.13)"/><path class="cls-1" d="M413.27,425.67l1,.3-.84.31Z" transform="translate(-334.7 -379.13)"/><path class="cls-1" d="M397.28,499.34l-.1.06Z" transform="translate(-334.7 -379.13)"/><polygon class="cls-1" points="264.89 178.07 265.13 178.25 264.98 178.03 264.89 178.07"/><path class="cls-1" d="M602.08,556.14l.38.64-.71-.49Z" transform="translate(-334.7 -379.13)"/><path class="cls-1" d="M343.23,429.41l.17-.19-.22.11Z" transform="translate(-334.7 -379.13)"/><path class="cls-1" d="M579.84,660.58l.06.6-.48-.42Z" transform="translate(-334.7 -379.13)"/><path class="cls-1" d="M589.93,677.11c-.25-.33-.49-.67-.73-1l.73-.32.64,1Z" transform="translate(-334.7 -379.13)"/><path class="cls-1" d="M520.66,493.14l5.26,5.7a5,5,0,0,0,4.36,1.86c2.07-.1,4.27.58,6.39.64,1.91.07,4.22.55,5.29-1.24s-.33-3.6-1.63-5.15c-3.13-3.74-7.61-4.8-12.33-4.9-1.19,0-2.29.94-3.44,1.44a7.74,7.74,0,0,1-2.62.73c1.59-2.18,3.37-4,6.88-3.69,4.41.43,8.63,1.42,11.74,4.6,2,2.1,4.31,4.53,3,7.28-1.39,2.91-4.86,2.28-7.91,2.09-2.28-.15-4.56-.26-6.83-.49a4.26,4.26,0,0,1-2.11-.72,32.81,32.81,0,0,1-7-7.59Z" transform="translate(-334.7 -379.13)"/><path class="cls-1" d="M433.78,428.56c1-3.13,5-4.59,9.13-3.29,4.58,1.44,7.08,5.71,5.8,9.91-1.18,3.87-5.95,5.33-11.39,3.5C434.49,437.73,432.6,432.34,433.78,428.56Zm10.66,9.32c2.66-2.85,3-3.69,2.57-6.12-.56-3.2-3.54-5.41-7.15-5.3-3,.09-5.36,2.2-5.16,4.66.36,4.22,1.89,5.77,6,6.17C441.89,437.4,443.1,437.66,444.44,437.88Z" transform="translate(-334.7 -379.13)"/><path class="cls-1" d="M507.42,474.52a99.55,99.55,0,0,1-27-14.67Z" transform="translate(-334.7 -379.13)"/><path class="cls-1" d="M518,500.29c.27,3.59-.28,4.15-3.88,3.83-3.21-.29-5.93-1.28-7.08-4.31C510.37,498,511.77,498,518,500.29Zm-1.11,1c-2.46-1.76-5-1.38-7.76-1.21C512.38,503.21,514.38,503.51,516.91,501.31Z" transform="translate(-334.7 -379.13)"/><path class="cls-1" d="M473.34,433.1l-18.92-12.17.51-.64c6.68,3.59,12.76,7.92,19,12.1Z" transform="translate(-334.7 -379.13)"/><path class="cls-1" d="M584.13,517.92l-3.88.57c1.06,2.13,2.52,3.88,4.81,3.79,1.31,0,2.38-1.62,3.72-2.63,1.18,1.18.5,2.41-.61,3.09a7,7,0,0,1-4,1,6.71,6.71,0,0,1-3.12-1.78c-1.39-1.15-3-2.52-1.81-4.16S582.37,517.07,584.13,517.92Z" transform="translate(-334.7 -379.13)"/><path class="cls-1" d="M510.81,509l15.33,4.57C521.45,513.88,515.7,512,510.81,509Z" transform="translate(-334.7 -379.13)"/><path class="cls-1" d="M668.86,528.14l17.84,8.34-.45.8C680.22,534.47,673.73,532.49,668.86,528.14Z" transform="translate(-334.7 -379.13)"/><path class="cls-1" d="M619.28,501.27l17.62,8.26c-6.63-1.28-12.14-4.74-18.12-7.28Z" transform="translate(-334.7 -379.13)"/><path class="cls-1" d="M589.31,488.21l-16.57-12,.66-.73,16.66,12Z" transform="translate(-334.7 -379.13)"/><path class="cls-1" d="M502.17,467.26c-5.74-1.7-10.95-4.19-15-8.42Z" transform="translate(-334.7 -379.13)"/><path class="cls-1" d="M434.77,386.18c3.76.83,9.41,4.6,12.68,8.53Z" transform="translate(-334.7 -379.13)"/><path class="cls-1" d="M445.27,461.24c-2.09-1.68-4.18-3.34-6.26-5-1.71-1.38-3.4-2.78-5.1-4.17l.65-.65c3.81,2.91,7.63,5.81,11.41,8.76a9.32,9.32,0,0,1-.78,1Z" transform="translate(-334.7 -379.13)"/><path class="cls-1" d="M480.52,487.37c-4.65-1.67-7.73-4.94-11-8,2.44.72,8.43,5.29,10.94,8Z" transform="translate(-334.7 -379.13)"/><path class="cls-1" d="M458.78,426.22l11,7.34-.69.76c-3.72-2.37-7.59-4.59-10.22-8.13Z" transform="translate(-334.7 -379.13)"/><path class="cls-1" d="M430.69,450.66a14.79,14.79,0,0,1-6.79-9.28c1.06,1.49,2.09,3,3.17,4.47S429.48,449.06,430.69,450.66Z" transform="translate(-334.7 -379.13)"/><path class="cls-1" d="M739.67,561.24c4.08-.24,7.33,1.66,10.68,3.32-.11.26-.22.53-.32.79Z" transform="translate(-334.7 -379.13)"/><path class="cls-1" d="M642,537.09l-10.56-.87v-.94l10.57.89Z" transform="translate(-334.7 -379.13)"/><path class="cls-1" d="M431.14,409.54a2.94,2.94,0,0,1,4-.44c.59.37.73,1.3,1.07,2-.79.13-1.7.56-2.36.33A12.74,12.74,0,0,1,431.14,409.54Z" transform="translate(-334.7 -379.13)"/><path class="cls-1" d="M569.3,506.57c-2.93.51-4.12-.54-5.19-2.55C566.71,503.51,568.25,504,569.3,506.57Z" transform="translate(-334.7 -379.13)"/><path class="cls-1" d="M614.41,533.58l9.15,1.12c0,.31,0,.61,0,.91l-9.15-1.08Z" transform="translate(-334.7 -379.13)"/><path class="cls-1" d="M553.16,462.38l7.52,4.83-.53.68L552.34,463Z" transform="translate(-334.7 -379.13)"/><path class="cls-1" d="M588.8,530.55l-8.28-3.25.38-.94c1.36.6,2.7,1.24,4.09,1.78s2.84,1,4.26,1.5Z" transform="translate(-334.7 -379.13)"/><path class="cls-1" d="M451.19,467.46c-1.95-1.42-4-2.77-5.81-4.3-.38-.32-.08-1.26-.11-1.92l-.08-.08,6.64,6Z" transform="translate(-334.7 -379.13)"/><path class="cls-1" d="M671.42,532.06l8,4.1C675.59,535.74,674.66,535.27,671.42,532.06Z" transform="translate(-334.7 -379.13)"/><path class="cls-1" d="M419.68,401.07l2.15-7.21.63.18-2.12,7.12Z" transform="translate(-334.7 -379.13)"/><path class="cls-1" d="M733.14,557,727,554.84l.38-1,5.86,2.26Z" transform="translate(-334.7 -379.13)"/><path class="cls-1" d="M503,506.37l-5.32-2.71C500.73,503.88,500.73,503.88,503,506.37Z" transform="translate(-334.7 -379.13)"/><path class="cls-1" d="M473.85,408.56l1.55,1.29,2.48,2.77-.44.42L471.86,409l.32-.57Z" transform="translate(-334.7 -379.13)"/><path class="cls-1" d="M531,449.08l6.06,3.78c-2.88-.24-4.75-1.83-6.57-3.5Z" transform="translate(-334.7 -379.13)"/><path class="cls-1" d="M641.1,533.62l5.08.42,0,.94-5.08-.56Z" transform="translate(-334.7 -379.13)"/><path class="cls-1" d="M442.58,393.37q2.64,1.62,5.27,3.25a8.51,8.51,0,0,1-5.75-3Z" transform="translate(-334.7 -379.13)"/><path class="cls-1" d="M496.84,426l1.55,1.28.8,1.66-.5.42-4.76-4,.44-.23Z" transform="translate(-334.7 -379.13)"/><path class="cls-1" d="M600.05,532.09l4.32.44v.72L600,533Z" transform="translate(-334.7 -379.13)"/><path class="cls-1" d="M705.47,547.83l-1.11.54c-1.8-3.16,1.85-1.45,2.95-2.06Z" transform="translate(-334.7 -379.13)"/><path class="cls-1" d="M755.44,569.29l-1.58-1.3c0-.38,0-.76,0-1.86C754.85,567.47,757.67,567.33,755.44,569.29Z" transform="translate(-334.7 -379.13)"/><path class="cls-1" d="M417.74,427.06l-.45-1.78c.23-.77.47-1.54.7-2.31.3,1.42.61,2.83.91,4.25l-.48.2A1.11,1.11,0,0,1,417.74,427.06Z" transform="translate(-334.7 -379.13)"/><path class="cls-1" d="M451.83,467.12l2.75,2-.52.57-2.87-2.25Z" transform="translate(-334.7 -379.13)"/><path class="cls-1" d="M417.06,422.78l.71-2.33.27,2.62Z" transform="translate(-334.7 -379.13)"/><path class="cls-1" d="M493.93,425.36l-1.24-.81.35-.41,1.33,1Z" transform="translate(-334.7 -379.13)"/><path class="cls-1" d="M442.1,393.63l-1.29-.81.34-.42,1.43,1Z" transform="translate(-334.7 -379.13)"/><path class="cls-1" d="M480.45,487.4l.29.38c-.08,0-.21-.06-.23-.11a.61.61,0,0,1,0-.3Z" transform="translate(-334.7 -379.13)"/><path class="cls-1" d="M458.89,426.19l-.11,0Z" transform="translate(-334.7 -379.13)"/><path class="cls-1" d="M418.9,427.22l0,.85-.45-.65Z" transform="translate(-334.7 -379.13)"/><path class="cls-1" d="M417.83,420.55l-1-.3Z" transform="translate(-334.7 -379.13)"/><path class="cls-1" d="M724,622.34c3.6-.81,5.77,0,6.83,2.79a11.13,11.13,0,0,1-.26,8.86c-.46,1-1.6,2-1.38,2.94s1.69,1.84,3.19,3.32c-3-1-5.42-2.46-7.62-.72.49,1.63,1,3.27,1.55,5.2l4,2.26-.12.38-4.68-.88,5.15,3.87-.44.56-7.41-4c-2.25,2.81-5.52,2.08-8.79.91-1.2,4-1.2,4-4.22,5.31-.13-.22-.43-.6-.37-.65,2.15-1.73,2.42-3.78,1.17-6.31a8.9,8.9,0,0,1-.77-4.32c2.24,3.24,5,5.21,9.44,5,0-1.13,0-2.13,0-3.44l3.57-.94c0-.18.21-.46.11-.65-2.41-4.33-2.41-4.33,2.56-5.32.46-1,.61-2.24,1.42-2.71,1.91-1.09,1.92-2.65,1.93-4.4C728.83,625.36,728.56,624.86,724,622.34Z" transform="translate(-334.7 -379.13)"/><path class="cls-1" d="M767.3,639.49c-8,.66-29.39-4.85-34.22-8.5,6.17,1.64,11.79,3.21,17.44,4.61S761.7,638.2,767.3,639.49Z" transform="translate(-334.7 -379.13)"/><path class="cls-1" d="M767,660.19A140.65,140.65,0,0,1,738.26,649C741.49,649.08,763.89,657.89,767,660.19Z" transform="translate(-334.7 -379.13)"/><path class="cls-1" d="M759.59,589.17c-6.28,3.5-21.19,8.39-25.57,8l25.13-8.81Z" transform="translate(-334.7 -379.13)"/><path class="cls-1" d="M737.94,580.89c-4.37,4.52-16.51,9.26-20.61,8.46Z" transform="translate(-334.7 -379.13)"/><path class="cls-1" d="M764.62,652.79c.26,1.39.43,2.27.62,3.28l-11.18-3.33c0-.21,0-.42.05-.63Z" transform="translate(-334.7 -379.13)"/><path class="cls-1" d="M750.2,632.44c2,.45,3.17.77,4.31.93s2.47.48,3,0c2.53-2,5.27-.45,7.9-.48,0,.28.09.56.13.83l-5.51.11-.08.38,6.12,1.82A29,29,0,0,1,750.2,632.44Z" transform="translate(-334.7 -379.13)"/><path class="cls-1" d="M754.5,585.44a68.51,68.51,0,0,1-14.14,7.16c-.21-.29-.43-.58-.64-.88l14.19-7.23Z" transform="translate(-334.7 -379.13)"/><path class="cls-1" d="M769.54,599.64a26.16,26.16,0,0,1-11.66.44A29.44,29.44,0,0,1,769.54,599.64Z" transform="translate(-334.7 -379.13)"/><path class="cls-1" d="M711.35,568.22l6.58-5.38.83.74-6.42,5.51Z" transform="translate(-334.7 -379.13)"/><path class="cls-1" d="M704.61,691.34l5.75,8.17a10.67,10.67,0,0,1-6-8Z" transform="translate(-334.7 -379.13)"/><path class="cls-1" d="M752.09,675.66l-7.56-4.56.67-.91,7.53,4.61Z" transform="translate(-334.7 -379.13)"/><path class="cls-1" d="M721.7,682.77,714,677.23l.69-.78,8,5.43Z" transform="translate(-334.7 -379.13)"/><path class="cls-1" d="M688.82,678a21.35,21.35,0,0,1-6.51-6.11l.74-.55,6.41,6.33Z" transform="translate(-334.7 -379.13)"/><path class="cls-1" d="M709.15,565.52l5.79-4.77a7.44,7.44,0,0,1-5.2,5.42Z" transform="translate(-334.7 -379.13)"/><path class="cls-1" d="M748,571l-5.81,3.34C743.67,571.61,744,571.42,748,571Z" transform="translate(-334.7 -379.13)"/><path class="cls-1" d="M751.07,677.73,745.31,674l.62-.79,5.8,3.78Z" transform="translate(-334.7 -379.13)"/><path class="cls-1" d="M747.89,644.36l6.22,2.19c-.06.17-.11.33-.17.49l-6.35-1.89Z" transform="translate(-334.7 -379.13)"/><path class="cls-1" d="M690.52,573.48l4.21-1.5.15.32-4,1.84Z" transform="translate(-334.7 -379.13)"/><path class="cls-1" d="M709.74,575.43,706,574.09c0-.17,0-.34,0-.51a4.36,4.36,0,0,1,1.31.06c.94.32,1.85.75,2.77,1.13Z" transform="translate(-334.7 -379.13)"/><path class="cls-1" d="M720.53,677.13l3,1.88-.42.55-3-1.82Z" transform="translate(-334.7 -379.13)"/><path class="cls-1" d="M751,574.43c-1,0-2.27,1.27-2.71-.74h-.06l1.23-.55-.08.05c.85.38,2.26-1.14,2.66.78l.09,0-1.22.53Z" transform="translate(-334.7 -379.13)"/><path class="cls-1" d="M726,631a4.65,4.65,0,0,1-1.52.28c-.22,0-.62-.79-.55-.84a3.07,3.07,0,0,1,1.28-.54C725.3,629.85,725.59,630.4,726,631Z" transform="translate(-334.7 -379.13)"/><path class="cls-1" d="M721.2,631.88l1.63.82-.55.5-1-1.38Z" transform="translate(-334.7 -379.13)"/><path class="cls-1" d="M752.07,574l1.76.78-2.46,1c-.11-.45-.23-.9-.34-1.35l-.09,0,1.22-.53Z" transform="translate(-334.7 -379.13)"/><path class="cls-1" d="M711.71,638.23c-.58.18-1,.44-1.25.34s-.45-.54-.55-.85c0-.08.5-.38.65-.32A6,6,0,0,1,711.71,638.23Z" transform="translate(-334.7 -379.13)"/><path class="cls-1" d="M748.32,573.69c.22-.45.44-.9.67-1.35l.42.85.08-.05-1.23.55Z" transform="translate(-334.7 -379.13)"/><path class="cls-1" d="M689.46,677.63l.72,1-1.36-.7Z" transform="translate(-334.7 -379.13)"/><path class="cls-1" d="M708.49,659l.17.26-.41-.16Z" transform="translate(-334.7 -379.13)"/><path class="cls-1" d="M719.47,666.58l-.2-.8.81.53Z" transform="translate(-334.7 -379.13)"/><path class="cls-1" d="M707.15,691.54l-.22-.82.86.54Z" transform="translate(-334.7 -379.13)"/><path class="cls-1" d="M704.33,691.46c-.05-.19-.1-.38-.16-.58l.44.46Z" transform="translate(-334.7 -379.13)"/><path class="cls-1" d="M669,567.7c-7.78-1.45-22.38-8.66-25.58-12.39Z" transform="translate(-334.7 -379.13)"/><path class="cls-1" d="M631.36,544.53c3.06.91,5.3,1.59,7.56,2.25,2.58.75,4.77,1.79,4.54,4.51A31,31,0,0,1,631.36,544.53Z" transform="translate(-334.7 -379.13)"/><path class="cls-1" d="M618.81,567.87A83.43,83.43,0,0,1,609,552.94Z" transform="translate(-334.7 -379.13)"/><path class="cls-1" d="M651.4,557l8.72,3.92A11.15,11.15,0,0,1,651.4,557Z" transform="translate(-334.7 -379.13)"/><path class="cls-1" d="M680.89,569c-2.77-1-6-1.16-9-4.07,3.92,1.1,7.1,1.28,8.93,4.12Z" transform="translate(-334.7 -379.13)"/><path class="cls-1" d="M653.09,545.12l8.23,4-.44.76-8.39-4Z" transform="translate(-334.7 -379.13)"/><path class="cls-1" d="M641.37,603.06c.08.5.16,1,.32,1.93-3.29-2-5.4-4.21-6.51-7.13,0,0,.69-.2,1.06-.31l0-.1,3,3.42-.09-.11,2.33,2.41Z" transform="translate(-334.7 -379.13)"/><path class="cls-1" d="M696,560.39c-3.39.77-5.5-1.7-8.09-2.93,2.8.65,5.8.85,8,3Z" transform="translate(-334.7 -379.13)"/><path class="cls-1" d="M638.29,597.91l6.2,6-.52.49-2.6-1.36.07.11-2.33-2.41.09.11-1.41-2.7Z" transform="translate(-334.7 -379.13)"/><path class="cls-1" d="M693.86,558.36l-6.29-3.82C691.28,554.94,692,555.34,693.86,558.36Z" transform="translate(-334.7 -379.13)"/><path class="cls-1" d="M626.66,586.64c-2.15-1.48-3.07-3.5-4.19-5.44l.85-.4,3.77,5.66Z" transform="translate(-334.7 -379.13)"/><path class="cls-1" d="M612.88,563.87a15.43,15.43,0,0,1-4-5.16l.91-.45,3.66,5.32Z" transform="translate(-334.7 -379.13)"/><path class="cls-1" d="M662.18,583.05l-4.69-4.16C661.24,580.11,661.35,580.2,662.18,583.05Z" transform="translate(-334.7 -379.13)"/><path class="cls-1" d="M612.52,589.5c.64,1.38,1.28,2.75,2.2,4.75l-2.34-1.34,0,.1c-.11-1.11-.21-2.22-.31-3.33Z" transform="translate(-334.7 -379.13)"/><path class="cls-1" d="M629.69,586,626,582.92c2.22.17,3.26,1.45,4.16,2.84Z" transform="translate(-334.7 -379.13)"/><path class="cls-1" d="M610.54,591.66c-1.23-1.32-1.26-2.77-1.61-4.18l1-.12,1.26,4Z" transform="translate(-334.7 -379.13)"/><path class="cls-1" d="M612.38,592.91l-.8.71-1-2,.64-.26,1.25,1.61Z" transform="translate(-334.7 -379.13)"/><path class="cls-1" d="M613.5,563.58l1.59,1.71-.53.4-1.68-1.82Z" transform="translate(-334.7 -379.13)"/><path class="cls-1" d="M675,568.14l2.1.89a5.87,5.87,0,0,1-1.17.21C675.84,569.24,675.68,568.91,675,568.14Z" transform="translate(-334.7 -379.13)"/><path class="cls-1" d="M635.47,569.77l-.72-1.14,1.43.78Z" transform="translate(-334.7 -379.13)"/><path class="cls-1" d="M631.12,578.18l-.58-.85,1.17.56Z" transform="translate(-334.7 -379.13)"/><path class="cls-1" d="M636.24,597.55c.77-.56,1.5-.79,2,.36l-.5.26-1.58-.72Z" transform="translate(-334.7 -379.13)"/><path class="cls-1" d="M627.09,586.46c.09.25.19.5.29.76l-.71-.58Z" transform="translate(-334.7 -379.13)"/><path class="cls-1" d="M630.2,585.76l.29.77c-.26-.19-.53-.37-.8-.55Z" transform="translate(-334.7 -379.13)"/><path class="cls-1" d="M612.12,589.68l0-.72.37.54Z" transform="translate(-334.7 -379.13)"/><path class="cls-1" d="M612.11,663.36c-5.52,1.22-11.13,1.94-17.09.78l16.65-1.53C611.81,662.86,612,663.11,612.11,663.36Z" transform="translate(-334.7 -379.13)"/><path class="cls-1" d="M611.67,662.61l5.18-.85.38.66-5.12.94C612,663.11,611.81,662.86,611.67,662.61Z" transform="translate(-334.7 -379.13)"/><path class="cls-1" d="M620.36,661.65l-3.13.77-.38-.66,3.22-.56C620.16,661.35,620.26,661.5,620.36,661.65Z" transform="translate(-334.7 -379.13)"/><path class="cls-1" d="M606.13,658.57l2.21-.65.3.61-2.16.62Z" transform="translate(-334.7 -379.13)"/><polygon class="cls-1" points="279.42 276.3 279.26 276.43 279.47 276.39 279.42 276.3"/><path class="cls-1" d="M620.07,661.2l.72-.29-.43.74C620.26,661.5,620.16,661.35,620.07,661.2Z" transform="translate(-334.7 -379.13)"/><path class="cls-1" d="M704.63,600.36c3.25.69,2.52-2.44,4.33-2.87-1.91-5.83-1.91-5.83-6.87-9,1.84.27,2.89.19,3.66.58,4.45,2.29,6.22,8.33,3.55,11.77C708.34,602,707.6,602,704.63,600.36Z" transform="translate(-334.7 -379.13)"/><path class="cls-1" d="M688.09,586.21c2.65-2,2.65-2,7.24-.29Z" transform="translate(-334.7 -379.13)"/><path class="cls-1" d="M699,594.72l-2.36,2.33c-1-2.42.06-2.83,1.32-3.14Z" transform="translate(-334.7 -379.13)"/><path class="cls-1" d="M685.15,608.26c-.56-.62-1.14-1.24-1.67-1.88,0,0,.5-.48.57-.44.75.44,1.46.92,2.18,1.4Z" transform="translate(-334.7 -379.13)"/><path class="cls-1" d="M691.63,608.24c.13.58.36,1,.25,1.27a1,1,0,0,1-.9.44,1.1,1.1,0,0,1-.66-.8C690.33,608.93,690.84,608.76,691.63,608.24Z" transform="translate(-334.7 -379.13)"/><path class="cls-1" d="M713.07,613.16,710.6,611c2.24-.17,2.4,1,2.8,2Z" transform="translate(-334.7 -379.13)"/><path class="cls-1" d="M705.45,608.08l-1.63-.86a7.87,7.87,0,0,1,1.35-.27c.14,0,.34.35.51.54Z" transform="translate(-334.7 -379.13)"/><path class="cls-1" d="M684.94,601.62a13,13,0,0,1-2.34-.18c-.28-.08-.71-.7-.64-.77a3.24,3.24,0,0,1,1.19-.8A19.18,19.18,0,0,1,684.94,601.62Z" transform="translate(-334.7 -379.13)"/><path class="cls-1" d="M689.36,600.59a6.82,6.82,0,0,1-1.1.06c-.06,0-.21-.55-.15-.58a5.64,5.64,0,0,1,1-.24Z" transform="translate(-334.7 -379.13)"/><path class="cls-1" d="M714.06,614c.29.46.58.93.86,1.4l-.66.16c-.17-.48-.34-1-.52-1.42Z" transform="translate(-334.7 -379.13)"/><path class="cls-1" d="M691.31,594.62l-1.14-.21c.11-.19.16-.45.34-.55a2.64,2.64,0,0,1,.82-.1Z" transform="translate(-334.7 -379.13)"/><path class="cls-1" d="M716.19,622.89l-.48-2.4.46-.17c0,.87,0,1.74-.07,2.61Z" transform="translate(-334.7 -379.13)"/><path class="cls-1" d="M696.54,603.69l-.72-.1A2.78,2.78,0,0,1,696,603c0-.06.36,0,.37,0C696.46,603.23,696.5,603.46,696.54,603.69Z" transform="translate(-334.7 -379.13)"/><path class="cls-1" d="M715.71,620.49l-.05-1.26.51,1.09Z" transform="translate(-334.7 -379.13)"/><polygon class="cls-1" points="381.4 243.81 381.61 243.99 381.49 243.76 381.4 243.81"/><path class="cls-1" d="M713.74,614.17c-.22-.34-.44-.68-.67-1l.33-.15.66,1Z" transform="translate(-334.7 -379.13)"/><path class="cls-1" d="M661.69,605.38a8,8,0,0,1-2.3.55c-.27,0-.86-.93-.73-1.15a1.71,1.71,0,0,1,1.38-.6C660.45,604.22,660.86,604.75,661.69,605.38Z" transform="translate(-334.7 -379.13)"/><path class="cls-1" d="M660.54,616a4.54,4.54,0,0,1,.39,1.43c0,.15-.92.37-1,.28a2.22,2.22,0,0,1-.62-1.19C659.28,616.35,659.93,616.2,660.54,616Z" transform="translate(-334.7 -379.13)"/><path class="cls-1" d="M659.71,600.21a5.55,5.55,0,0,1-.06-1.46c.06-.24.59-.59.77-.53a7.23,7.23,0,0,1,1.33.84l-.9.94Z" transform="translate(-334.7 -379.13)"/><path class="cls-1" d="M655.24,596.45l1.27-.5a2.81,2.81,0,0,1,.44.93c0,.15-.5.47-.62.41A6.17,6.17,0,0,1,655.24,596.45Z" transform="translate(-334.7 -379.13)"/><path class="cls-1" d="M665.94,604.7a7.11,7.11,0,0,1-1.5.33,6.6,6.6,0,0,1-.7-1.31c.26-.07.62-.28.78-.19A11.87,11.87,0,0,1,665.94,604.7Z" transform="translate(-334.7 -379.13)"/><path class="cls-1" d="M655.06,613.27c-.78.22-1.36.57-1.76.43s-.6-.77-.88-1.19c.47-.19,1-.59,1.41-.51S654.53,612.7,655.06,613.27Z" transform="translate(-334.7 -379.13)"/><path class="cls-1" d="M649.19,591.47l.78.69a7.76,7.76,0,0,1-.94.59s-.53-.42-.48-.52A3.16,3.16,0,0,1,649.19,591.47Z" transform="translate(-334.7 -379.13)"/><path class="cls-1" d="M609.29,607.64l3.42.67c-1.53,2.49-2.6,1.33-3.68.45C609.11,608.38,609.2,608,609.29,607.64Z" transform="translate(-334.7 -379.13)"/><path class="cls-1" d="M617.13,608.87c.58,0,1.06-.21,1.24-.07s.38.64.56,1c-.34.08-.78.32-1,.2S617.49,609.39,617.13,608.87Z" transform="translate(-334.7 -379.13)"/><path class="cls-1" d="M689.69,670.37l5.94,3.76a9.48,9.48,0,0,1-6.47-3.52Z" transform="translate(-334.7 -379.13)"/><path class="cls-1" d="M689.16,670.61c-1.16-1.68-2.31-3.37-3.46-5.05l.66-.25,3.33,5.06Z" transform="translate(-334.7 -379.13)"/><path class="cls-1" d="M684,658.44l-.09-2,.69.06-.08,1.76Z" transform="translate(-334.7 -379.13)"/><path class="cls-1" d="M684.52,658.26v1.28c-.17-.36-.35-.73-.52-1.1Z" transform="translate(-334.7 -379.13)"/><path class="cls-1" d="M685.7,665.56c-.15-.59-.29-1.18-.44-1.77l.53-.23.57,1.75Z" transform="translate(-334.7 -379.13)"/><path class="cls-1" d="M685.26,663.79l.08-.88.45.65Z" transform="translate(-334.7 -379.13)"/><path class="cls-1" d="M667.29,673c-1.87.59-3.76,1.31-5.8-1.13,2.45-.57,4.14.48,5.87,1.22Z" transform="translate(-334.7 -379.13)"/><path class="cls-1" d="M665.45,665a5.66,5.66,0,0,1,.78,1.49c0,.19-.58.4-.9.6a4.83,4.83,0,0,1-.88-1.21C664.39,665.72,665,665.44,665.45,665Z" transform="translate(-334.7 -379.13)"/><path class="cls-1" d="M667.36,673.12a16.36,16.36,0,0,1,.29-1.86c.05-.19.39-.3.61-.45,1.4,1.36,1.4,1.36-1,2.21Z" transform="translate(-334.7 -379.13)"/><path class="cls-1" d="M633.24,640l4.89-8C639.15,635.76,637.73,638.21,633.24,640Z" transform="translate(-334.7 -379.13)"/><path class="cls-1" d="M625.88,623.61c1.73,2.57,3.94,5,3.8,8.25-.77-1.32-1.56-2.63-2.3-4s-1.45-2.69-2.17-4Z" transform="translate(-334.7 -379.13)"/><path class="cls-1" d="M636.28,626.26l-2.37-2.43,1.12-.51c1.43.46,1.53,1.62,1.72,2.73Z" transform="translate(-334.7 -379.13)"/><path class="cls-1" d="M630.24,619.24l-2.56-.76.13-.43,2.56.76Z" transform="translate(-334.7 -379.13)"/><path class="cls-1" d="M625.21,623.86c0-.45-.06-.89-.1-1.33l.77,1.08Z" transform="translate(-334.7 -379.13)"/><path class="cls-1" d="M636.75,626.05c0,.26,0,.52,0,.78l-.42-.57Z" transform="translate(-334.7 -379.13)"/><path class="cls-1" d="M666.64,635.93l-8.53-8.07c3.93.54,7.38,3.93,8.43,8.12Z" transform="translate(-334.7 -379.13)"/><polygon class="cls-1" points="331.84 256.85 332 256.93 331.94 256.8 331.84 256.85"/><path class="cls-1" d="M656,642.07l-13.27.6C645.59,640.68,650.72,640.41,656,642.07Z" transform="translate(-334.7 -379.13)"/><path class="cls-1" d="M655.18,644.76l-4.23-.37c0-.26,0-.52,0-.78l4.37.21C655.26,644.13,655.22,644.44,655.18,644.76Z" transform="translate(-334.7 -379.13)"/><path class="cls-1" d="M730,608.39l-9.36-11.77C724.94,597.58,729.18,602.77,730,608.39Z" transform="translate(-334.7 -379.13)"/><path class="cls-1" d="M615.41,642.92c-.23-.57-.54-1-.43-1.18s.62-.24,1-.27c.07,0,.37.46.3.6S615.83,642.52,615.41,642.92Z" transform="translate(-334.7 -379.13)"/><path class="cls-1" d="M617,639.34c-1.33,0-1.83.06-2-.09a1.29,1.29,0,0,1-.19-.92,1.15,1.15,0,0,1,.71-.06A11.6,11.6,0,0,1,617,639.34Z" transform="translate(-334.7 -379.13)"/><path class="cls-1" d="M622.85,639.59c-.62,0-1.11.12-1.31,0s-.19-.6-.15-.9a1,1,0,0,1,.7-.08A5,5,0,0,1,622.85,639.59Z" transform="translate(-334.7 -379.13)"/><path class="cls-1" d="M679,646.93l-3.69-1.67.38-.85,3.76,1.42Z" transform="translate(-334.7 -379.13)"/><path class="cls-1" d="M680.47,644.84l-3.91-1.16.14-.46,3.91,1.16Z" transform="translate(-334.7 -379.13)"/><path class="cls-1" d="M670.32,584.73l6.8-1c.3,1.46-1.29,1.9-2.79,2.21C672.64,586.34,671.05,586,670.32,584.73Z" transform="translate(-334.7 -379.13)"/><path class="cls-1" d="M679.11,574.29c.28,1.34.56,2.68,1,4.73-2.62-2.1-1.14-3.41-.92-4.75Z" transform="translate(-334.7 -379.13)"/><path class="cls-1" d="M649.39,681.41c-4.09-2.08-10.53-7.49-12.19-10.62,4.53,3.11,8.9,6.36,12.08,10.66Z" transform="translate(-334.7 -379.13)"/><path class="cls-1" d="M632.14,655.7c-.17-.45-.3-.78-.42-1.11l1.34-.24c.08.32.34.75.21.95S632.61,655.55,632.14,655.7Z" transform="translate(-334.7 -379.13)"/><path class="cls-1" d="M675.83,608.47a5.34,5.34,0,0,1-4.74.9c1.33-2.15,3.22-1,4.8-.81Z" transform="translate(-334.7 -379.13)"/></svg>