<svg id="Capa_1" data-name="Capa 1" xmlns="http://www.w3.org/2000/svg" viewBox="0 0 524.87 262.01"><defs><style>.cls-1{fill:#274c4c;}</style></defs><path class="cls-1" d="M491.67,356.41l-106.5,11c-39.79,4.09-87.37,15.47-102.55,65.74-5.65,18.7-5.43,39.61-4.65,59.8.71,18.67,2,38,8.54,54.37,15.88,39.62,54.67,46.94,87.78,49a2589.42,2589.42,0,0,0,382.07-4.74c9.55-.82,19.88-2.13,27-10.84,6.5-8,8.83-20.34,10.58-32A780.06,780.06,0,0,0,802.43,436c.1-31.75-3.72-68.34-23.43-85.29a47.79,47.79,0,0,0-34.68-11.46c-34.57,2.33-164.61,11.56-343.33,26.5" transform="translate(-277.56 -339.13)"/></svg>