<svg id="Capa_1" data-name="Capa 1" xmlns="http://www.w3.org/2000/svg" viewBox="0 0 406.76 602.7"><defs><style>.cls-1{fill:#fff;}</style></defs><path d="M650.56,546.4c9.18,6.51,18.94,12.22,27.42,19.72,15.46,13.7,15.23,31.37,0,45.3s-33.51,20.21-52.32,24.43c-61.17,13.72-121.9,12-181.84-8.23-14.31-4.83-28.08-11.36-39.3-22.93-14.78-15.26-14.23-31.48,1.39-45.45,11.14-10,24.21-15.36,37.65-19.94,3.51-1.19,6.93-2.73,11-4.37-7.87-15.14-12.47-30.79-12.1-47.36.4-17.6,1.5-35.35,4.29-52.63,1-6,7.12-12.16,12.31-15.75,15.81-11,34-13.93,52.15-15.64,34.47-3.24,68.56-1.1,101.47,11.93,12.14,4.8,23.92,10.75,30,25.38a12,12,0,0,0,3.29-1.21c16.21-12.46,39.15-5.22,46.62,20.51,11.4,39.33-9.13,78.25-40.58,85.71A9.44,9.44,0,0,0,650.56,546.4Zm-196.63-27c1.41,8.06,5.61,13.59,12.28,17l-6.64-1.22c4.93,6.23,8.48,10.8,12.15,15.26.85,1.05,2.52,1.43,3.1,2.56,5.73,11.3,14.64,18.81,24.25,25.44.83.58,2.7-.41,4-1,1.84-.87,3.56-2.94,5.34-3,25.66-.19,51.33-.14,77-.05,1.54,0,3.08.77,4.61,1.18,0,.83,0,1.66-.07,2.49a59.65,59.65,0,0,1-7.49.94c-21.93.07-43.86,0-65.78.1-4.11,0-8.22.81-13.75,1.39,49.18,36.83,114.31,3,128-42.33,3.27-10.79,6.92-21.63,8.63-32.78,2.57-16.7,4.39-33.67,1.72-52.11-11.46,14.29-25.94,19.07-40.77,22.57-28.12,6.65-56.51,6.66-84.88,2.42-19.22-2.87-38.17-7.25-55.14-18.58-3.64-2.43-7-5.46-11.39-9-.64,10-1,18.69-1.87,27.33-.43,4.18,1.06,5.38,4.27,6.31,8.19,2.37,16.29,5.11,24.43,7.71l-.36,1.63-29.2-8c1.63,5.42,4.78,10.43,4,14.57-1.26,7.07,1,12.18,3.73,17.66C454,518.39,454,518.88,453.93,519.36Zm17.5,45.33.58,2.18c-2.33.86-4.67,1.68-7,2.57-4.44,1.71-12.74,12.16-11.13,15.43a30.33,30.33,0,0,0,9.89,11c3.52,2.41,8.12,2.89,12.24,4.22-10.26,2.13-18.91-.92-26.26-9.46,1.34,3.31,3,6.64,5.46,8a64.44,64.44,0,0,0,16.32,6.61A328.09,328.09,0,0,0,598.92,608c12.22-2.09,24.21-7.25,35.74-12.55,6.9-3.17,6.14-8.84-.7-13.33-3.34,13.45-19.39,22.61-30.94,18,6.9-2.67,14.25-5.11,21.29-8.37,6.24-2.9,7.33-11.19,2-14.83-4.91-3.36-9.38-5-15.56.13-29.55,24.42-61.46,33.83-97,16.33-21-10.34-38.06-25.84-51.83-46.19-1.7-2.52-5.59-6-7.25-5.3-14.55,6-29.72,11.09-43,19.76C394.44,573,394.64,589,410.27,603c13.19,11.82,28.86,18,44.88,22.68,54.55,16,109.69,17.29,165,6,18.34-3.75,36.35-9.5,51.92-21.89,16.18-12.87,16.83-28.75.44-41.5-10.21-7.94-21.93-13.52-33.21-19.62-1.94-1-6.22-.47-7.4,1.17-4.19,5.8-7.51,12.38-11.14,18.63,6,3.7,12.29,6.68,17.63,11,7.72,6.29,7.45,14-.38,20.33-3.72,3-7.95,6-12.32,7-16.6,3.89-33.23,8.41-50.06,10.09-37.36,3.72-74.65,2-111.12-8.74-8.83-2.59-17.38-7.47-25.22-12.82-6.77-4.63-6.76-12.15-.68-17.44C448.23,569.51,459.7,566.48,471.43,564.69ZM647,460.64c3.22-1.4,5.33-2.5,7.53-3.25,9.83-3.32,17.33.67,18.72,12,3,24.58.84,37.4-20.73,49.39-3.15,1.75-6.21,3.69-9.31,5.54l.58,1.33,6.14-1.88a14.91,14.91,0,0,1-5.3,3.92c-1.76.94-3.5,1.94-5.25,2.91l.68,1.53,11.13-2.82.25,1.09-14.95,5.78.77,2.39,4.73.27-5.37,3.41c35.11-.48,56.12-30.91,54-63.68-.86-13.44-3.5-26.34-14.36-34.81-6.89-5.37-19.26-5.34-26.6-.28C643.15,448,648,454.1,647,460.64Zm-13.17-7.72c4.94-7.26,5.15-12.42-.51-17.77-5.23-4.95-11.22-9.59-17.59-12.24-43.11-18-87.31-19.67-131.89-8.44-9.3,2.34-18.46,7.21-26.63,12.81-9,6.19-8,17.07,1.06,22.58,9.88-16.18,15.71-21.52,33.18-25.72a223.93,223.93,0,0,1,39.29-5.89c26.72-1.56,53.17,1.26,78.21,12.52C618.68,435.15,629.87,438.54,633.82,452.92Zm10,63.15c20.95-6,30.12-23,24.49-46.19-1.19-4.91-3.34-8.55-8.71-8-5.75.58-11.21,3.3-12,9.52C645.61,486.2,645,501.24,643.82,516.07Zm-23.89-55.94c-37.18,14.44-75.13,8.3-112.93,5.56C545,471.5,583.13,479.87,619.93,460.13Zm-50-30.11.31-.94c-18.78,0-37.59-.64-56.34.23a52.42,52.42,0,0,0-35,14.87c18.66-12.59,39.25-12.31,59.95-12.12C549.17,432.15,559.55,430.75,569.92,430ZM492.65,448.7l.61,2.05,38.8-5.31c-.09-.75-.17-1.51-.26-2.26Z" transform="translate(-344.42 -178.15)"/><path d="M595.46,178.15c11,16.67,6.85,37.64-10.71,47.9-9.25,5.4-19.15,9.43-28.73,14.16-11.34,5.6-22.79,11.15-28.13,25.07-6.69,17.46-.3,33.11,15.88,38.94,8.62,3.11,17.6,5.25,25.87,9.26,14.06,6.82,15.54,20.27,4.3,32.08-5.42,5.69-10.85,11.41-16,17.43-7.94,9.32-11.23,20.17-7.22,33.11-7-4.24-11-16-7.46-26.23,3-8.59,7.38-16.7,12.05-24.35,6.54-10.71,4.5-17.78-6.84-21.11-7.87-2.32-15.9-4.26-23.46-7.54-29.54-12.82-31.51-52.3-12.64-74.17,8.58-9.95,19.48-14.89,31.23-18,10.42-2.73,21-4.79,31.24-8.26,9.39-3.19,19.17-7.36,21.15-20.05C597,190.34,595.7,183.82,595.46,178.15Z" transform="translate(-344.42 -178.15)"/><path d="M667.94,717.17c3.12,4.71,5.32,7.44,6.88,10.57,1.07,2.16,1.23,4.87,1.8,7.34-2.79.59-6.3,2.66-8.23,1.49-4.78-2.91-9.87-6.47-13-11.26-6.65-10.25-12.4-21.27-18-32.31-3.89-7.68-2.93-9.62,4.33-13.11,15.91-7.67,25.47-1.67,27.21,17.64.47,5.33,2.11,8.67,6.4,10.76,5.74,2.8,11.61,5.41,17,8.91,2,1.32,3,4.88,4.37,7.42-2.61.79-5.6,2.9-7.77,2.14C682.42,724.45,676.18,721,667.94,717.17Zm-11-14.73,2.64-1c-.65-3.65-.55-7.83-2.21-10.78-1.32-2.35-4.78-3.22-7.3-4.74-.5.7-1,1.41-1.51,2.11Q652.76,695.26,657,702.44Z" transform="translate(-344.42 -178.15)"/><path d="M385.63,691.62c-1.57-3.07-4.42-6.27-9.5-1.94-4.42,3.77-7.16.28-10.81-3.77,1.88-2.38,3.4-5.36,5.69-7,12.25-9,24.75-17.49,37-26.38,5.68-4.1,10.41-.68,14.74,2.43,1,.76.72,6.28-.59,8.34-5.39,8.45-11.61,16.24-17.06,24.64-1.57,2.43-1.41,6.19-2.41,9.18a43.9,43.9,0,0,1-3.11,6.16c-5.55-5.49-9.89,9.3-14.84,1.36C383.28,702.19,385.16,697.16,385.63,691.62Zm17.87-18.36-1.34-1.35L389.59,681l5,4.43Z" transform="translate(-344.42 -178.15)"/><path d="M620.47,766.2c-1.29-2.72-3.2-5.24-3.69-8.07-2.72-15.75-5-31.58-7.62-47.36-1-6,1-10.13,5.18-14s6.52-2.69,8.81,1.84q6.18,12.18,12.41,24.33c2.2,4.28,3.16,10,9.46,9.55.82,0,2.78,3.25,2.56,4.67-.89,5.59-2.45,11-3.75,16.55-2.16-1.08-4.27-2.3-6.48-3.21-2.05-.85-4.62-2.47-6.21-1.73s-3.51,4.11-3.28,6C628.58,760.78,626.79,764.28,620.47,766.2Zm4.82-27.81c7-2.19,6.62-5-2.54-17Z" transform="translate(-344.42 -178.15)"/><path d="M562.66,726.48v13.16l8.71,9-9.21,7.89v12.62c1.26,0,2.43-.31,3.39.06,2.65,1,5.22,2.34,7.82,3.54-1.79,2.26-3.2,5.66-5.43,6.57-11.59,4.74-20.12-1.53-20.5-15.28-.36-12.7,0-25.43.34-38.14.18-7.16,2.66-12.64,8-13,2-5.68,3.13-10.56,5.47-14.54,1-1.66,4.58-1.39,7-2,.17,2.72,1,5.62.36,8.11-.75,3.07-2.66,5.8-3.41,7.31,2.7,3.52,4.7,6.15,6.7,8.77L564.41,727Z" transform="translate(-344.42 -178.15)"/><path d="M463.19,719.78c1.62,5.67,2.67,9.35,3.73,13l-9.75,1.61-.92-1.9-6.33,13.24c1.59.8,3.1,1.06,3.87,2a83.86,83.86,0,0,1,4.65,7.17c-2.31,1.07-5.29,3.7-6.8,2.9a65.6,65.6,0,0,1-14.08-10.22c-1.32-1.25-1.67-5.71-.74-7.69Q446.5,719.27,457,699.1c2.78-5.28,7.11-8.34,11.54-5.86,4.48-3.93,8-7.69,12.16-10.29,1.23-.77,4.69,1.16,6,2.91.65.88-.75,4.72-2.13,6.14-2.34,2.41-5.39,4-7.16,5.2.78,4.26,1.43,7.78,2.07,11.31l-11.18,1.86Z" transform="translate(-344.42 -178.15)"/><path d="M391.19,629.65c-4.67,1.33-8.35,1.74-11.49,3.41a115.75,115.75,0,0,0-15.1,9.64c-6,4.47-7.26,11.21-5,19,.64,2.18-.5,5-.82,7.56-2.44-.7-5.65-.54-7.19-2.25-10-11.1-9.81-28.66,1.89-38,8.67-6.9,19.24-11.11,29.33-15.46,4.67-2,11.23-2,13.71,4,3,7.28,6.56,15.58,1.54,23.55-1.28,2-4.91,2.26-7.46,3.31a74.11,74.11,0,0,1-.94-8C389.66,634.82,390.38,633.16,391.19,629.65Z" transform="translate(-344.42 -178.15)"/><path d="M708,624.07,718.52,633c1.54-1.43,2.74-3.07,4.28-3.85,3.81-1.91,8,.38,6.78,4.14-3.63,11.11,5.08,10.43,9.67,15,1.42-2.29,2.25-4.61,3.78-5.83s4.46-2.76,5.79-2,2.75,4.48,2.25,6.25a28,28,0,0,1-5,9.09,34.09,34.09,0,0,1-7.91,7.86c-1.81,1.18-5.34,1.58-6.88.38-11.6-9-23-18.39-34.25-27.92-4-3.43-5.32-7.58-1-12.42,3.42-3.8,5.91-8.71,9.56-12.14,1.71-1.6,5.18-.87,7.85-1.2-.37,2.73-.35,5.63-1.25,8.12C711.5,620.39,709.67,621.89,708,624.07Z" transform="translate(-344.42 -178.15)"/><path d="M678.94,665.33c-1.07,1.47-1.71,3.24-2.75,3.59-2,.69-4.58,1.42-6.21.52-1.16-.64-2.22-4.86-1.5-5.86,5.76-8,11.88-15.62,18.13-23.13.55-.66,3.47-.11,4.12.85,1,1.43,1.77,4.52,1.06,5.53-3.9,5.58,0,8.52,2.88,11.54,7.61,8,15.42,15.8,23.15,23.67.51.52,1.11,1,1.59,1.51,2.73,3.21,7.47,5.85,4,11.42-2.2,3.52-10.1,2.67-13.8-.83C699.53,684.6,689.38,675.13,678.94,665.33Z" transform="translate(-344.42 -178.15)"/><path d="M515.85,725.58c-3.64-3.52-7.67-5.54-7.9-8-.52-5.56,4.19-6.19,7.94-6A144.15,144.15,0,0,1,536,713.93c1.88.37,3.33,3.44,5,5.28-1.62,1.62-3.21,4.59-4.84,4.61-4.48.06-4.72,3.07-5.08,6.57q-2.06,20.48-4.2,40.94c-.42,4,.06,8.92-5.33,9.18-3.74.18-8.23-6.62-8-11.77.38-7.51.9-15,1.31-22.53S515.57,731.23,515.85,725.58Z" transform="translate(-344.42 -178.15)"/><path d="M441.22,691.08c-2.14,3.23-4.06,6.11-5,7.48.62,5.21,1.06,8.9,1.5,12.58l-10.16,1.3c-1.56,3.16-3.83,7.67-6,12.21-1.81,3.74-3.18,10-7.95,7-3-1.91-4.82-7.9-5.19-12.27-.31-3.73,1.55-8.27,3.61-11.53,7-11,14.23-21.87,21.95-32.24,1.37-1.84,6.8-2.69,8.08-1.33a52.37,52.37,0,0,1,9.67,14.63c1.74,4-2.24,7.19-6.32,5.43C444,693.69,442.87,692.37,441.22,691.08Z" transform="translate(-344.42 -178.15)"/><path d="M599.05,226.86c-1.71,5.75-7.38,9.81-13.29,13.07-9,4.95-18.48,8.63-27.28,13.87-5.39,3.21-10.82,7.5-14.55,12.78-6.31,8.93-6.28,19.12-.2,28.95-10.52-10.24-9.88-28.29,2-37.36,8.15-6.23,17.73-10.1,26.57-15.24C581.57,237.53,590.74,231.87,599.05,226.86Z" transform="translate(-344.42 -178.15)"/><path d="M553,340.44c-1.15-7.66-6.84-8-11.92-9.74-10-3.33-20.42-5.74-29.63-10.86-15.17-8.44-21.76-25.63-18.76-46.2.44,5.75.42,9.8,1.11,13.7,2.82,16,10.74,27.53,24.78,32.8,9.44,3.54,19.2,6.06,28.79,9.12C552.34,330.84,556,333.43,553,340.44Z" transform="translate(-344.42 -178.15)"/><path d="M587.47,753.78c-1.38-1.27-4-2.54-4.3-4.27s1.19-5,2.74-6.09a19.25,19.25,0,0,1,8.46-3.32c2-.3,4.29,1,6.45,1.63-.83,2.74-.94,6.59-2.65,7.95C595.48,751.82,591.72,752.28,587.47,753.78Z" transform="translate(-344.42 -178.15)"/><path d="M480.91,736c4.32.83,7.22.91,9.75,2,1.94.84,3.42,3,5.1,4.55-2.11,2-4,5.2-6.39,5.74-2.69.62-6.09-.57-8.67-2.06-1.8-1-3.95-4.07-3.75-5.92S480,736.84,480.91,736Z" transform="translate(-344.42 -178.15)"/><path class="cls-1" d="M454.1,517.9c-2.69-5.48-5-10.59-3.73-17.66.75-4.14-2.4-9.15-4-14.57l29.2,8,.36-1.63c-8.14-2.6-16.24-5.34-24.43-7.71-3.21-.93-4.7-2.13-4.27-6.31.9-8.64,1.23-17.35,1.87-27.33,4.42,3.51,7.75,6.54,11.39,9,17,11.33,35.92,15.71,55.14,18.58,28.37,4.24,56.76,4.23,84.88-2.42,14.83-3.5,29.31-8.28,40.77-22.57,2.67,18.44.85,35.41-1.72,52.11-1.71,11.15-5.36,22-8.63,32.78-13.71,45.3-78.84,79.16-128,42.33,5.53-.58,9.64-1.37,13.75-1.39,21.92-.13,43.85,0,65.78-.1a59.65,59.65,0,0,0,7.49-.94c0-.83.05-1.66.07-2.49-1.53-.41-3.07-1.18-4.61-1.18-25.66-.09-51.33-.14-77,.05-1.78,0-3.5,2.09-5.34,3-1.26.6-3.13,1.59-4,1-9.61-6.63-18.52-14.14-24.25-25.44-.58-1.13-2.25-1.51-3.1-2.56-3.67-4.46-7.22-9-12.15-15.26l6.64,1.22c-6.67-3.42-10.87-9-12.28-17L483.56,529c.13-.51.25-1,.38-1.53Zm102-8.25-2.6.55c0,17.12.27,34.24-.14,51.35-.17,6.6,2.16,8,7.37,7.76,8.15-.38,16.36-.83,24.45-.09,7.7.7,11-.26,15.71-8l-9.84,5.63c0-10.64,0-20,0-29.35,0-3.47-.36-6.24-4.36-6.19-7.15.08-14.3,0-21.57,0v28.56c5.43-1.4,11.54-1,14.31-4.19,3.56-4.09-.18-11.92-6.55-15.77l3.54,14.4-7.22-.94V537h17.42v26.42H557.88V526.08h31.26V509.55l-2.13-.32c-.61,3.87-1.22,7.75-1.9,12l-6-.34L577,509.4l-2.25.52c-.27,3.53-.53,7.07-.83,11h-7.13c-.37-4-.7-7.62-1-11.26l-2.19-.08a75.36,75.36,0,0,1-1.28,8.16c-.36,1.37-1.61,2.45-2.45,3.67-.81-1.27-2-2.42-2.34-3.82A76.16,76.16,0,0,1,556.12,509.65Zm-48.86,5.26h28.8v37.42c-9.13,0-17.72-.16-26.3.12-2,.07-5.58,1.41-5.69,2.51-.47,4.71.08,9.56.25,14.35l2.6,0c.34-3.89.67-7.78,1-11.75h7.22c.47,4.1.89,7.85,1.32,11.6h2.27c.56-3.81,1.11-7.62,1.69-11.63h6c.72,4.17,1.38,8,2,11.81l2.26-.44c.21-3.73.43-7.46.68-11.79,9.08-.41,2.58,9.56,7.93,12.39.48-2.7,1.26-5.14,1.29-7.59.1-10.66.31-21.33-.11-32-1-25.14,3.51-20.46-19.71-20.63-5.73,0-13.68-1.31-16.57,2.17S503,523.7,503,530.15c0,17.34.05,17.34,15.69,17,10.84-.27,10.84-.27,10.85-12.57,0-15.52,0-15.53-13.58-14.56-.41,0-.8.44-1.18.69-1.76,12.11-.83,14.83,6.4,17.13l-3.86-12.88H525v16.4H507.26Zm83.83-14.5H502.71C509.51,505.44,586.6,505.09,591.09,500.41Zm25.38,41.88c14-10.56,22.08-46,14.79-65.34C630.85,500,626.84,521.93,616.47,542.29ZM545.94,510v60.23C550.67,563.17,550.14,514.89,545.94,510Zm-45.3-19.88a69.94,69.94,0,0,0,48.92,4.54Z" transform="translate(-344.42 -178.15)"/><path class="cls-1" d="M471.43,564.69c-11.73,1.79-23.2,4.82-32.81,13.2-6.08,5.29-6.09,12.81.68,17.44,7.84,5.35,16.39,10.23,25.22,12.82,36.47,10.71,73.76,12.46,111.12,8.74,16.83-1.68,33.46-6.2,50.06-10.09,4.37-1,8.6-4,12.32-7,7.83-6.28,8.1-14,.38-20.33-5.34-4.36-11.6-7.34-17.63-11,3.63-6.25,7-12.83,11.14-18.63,1.18-1.64,5.46-2.22,7.4-1.17,11.28,6.1,23,11.68,33.21,19.62,16.39,12.75,15.74,28.63-.44,41.5-15.57,12.39-33.58,18.14-51.92,21.89-55.32,11.33-110.46,10-165-6-16-4.68-31.69-10.86-44.88-22.68-15.63-14-15.83-30,1.42-41.3,13.24-8.67,28.41-13.79,43-19.76,1.66-.68,5.55,2.78,7.25,5.3,13.77,20.35,30.81,35.85,51.83,46.19,35.57,17.5,67.48,8.09,97-16.33,6.18-5.1,10.65-3.49,15.56-.13,5.32,3.64,4.23,11.93-2,14.83-7,3.26-14.39,5.7-21.29,8.37,11.55,4.58,27.6-4.58,30.94-18,6.84,4.49,7.6,10.16.7,13.33-11.53,5.3-23.52,10.46-35.74,12.55a328.09,328.09,0,0,1-127.38-2.78,64.44,64.44,0,0,1-16.32-6.61c-2.49-1.34-4.12-4.67-5.46-8,7.35,8.54,16,11.59,26.26,9.46-4.12-1.33-8.72-1.81-12.24-4.22a30.33,30.33,0,0,1-9.89-11c-1.61-3.27,6.69-13.72,11.13-15.43,2.32-.89,4.66-1.71,7-2.57Zm173.17-4.27c5.8,4.67,12.06,8.78,17.29,14.13,9.75,10,7.25,24.54-4.79,30.33-4.54,2.18-9.22,4-13.84,6a31.33,31.33,0,0,0,15.32-1c11.8-3.95,16.89-15.57,12.16-28.16C665.91,568.9,655.68,563.69,644.6,560.42Zm-193.71-7.93-.47-1.84c-14.62,3.07-29.15,7.09-40.05,19.3-3.75,4.19-5.46,11.19-6.84,17.26-1,4.44,1.54,7.73,4.67,7.69.41-5.14,0-9.79,1.26-13.74,3.11-9.48,10.63-14.15,18.35-18S443.19,556,450.89,552.49Zm-21.74,44.59c-8.11-11.5-5.79-15.46,18.46-31.47-11.11.3-23.19,9.21-26.11,19.25C419.33,592.33,421.86,596.37,429.15,597.08Z" transform="translate(-344.42 -178.15)"/><path class="cls-1" d="M647,460.64c1-6.54-3.84-12.68,2.68-17.18,7.34-5.06,19.71-5.09,26.6.28,10.86,8.47,13.5,21.37,14.36,34.81,2.1,32.77-18.91,63.2-54,63.68l5.37-3.41-4.73-.27-.77-2.39,14.95-5.78-.25-1.09-11.13,2.82-.68-1.53c1.75-1,3.49-2,5.25-2.91a14.91,14.91,0,0,0,5.3-3.92l-6.14,1.88-.58-1.33c3.1-1.85,6.16-3.79,9.31-5.54,21.57-12,23.74-24.81,20.73-49.39-1.39-11.31-8.89-15.3-18.72-12C652.32,458.14,650.21,459.24,647,460.64Zm35.67,41.64c9.09-13.43,6.81-38.16-4.15-45.8C687.72,471.05,687.26,486.34,682.66,502.28Z" transform="translate(-344.42 -178.15)"/><path class="cls-1" d="M633.82,452.92c-4-14.38-15.14-17.77-24.88-22.15-25-11.26-51.49-14.08-78.21-12.52a223.93,223.93,0,0,0-39.29,5.89c-17.47,4.2-23.3,9.54-33.18,25.72-9-5.51-10.07-16.39-1.06-22.58,8.17-5.6,17.33-10.47,26.63-12.81,44.58-11.23,88.78-9.52,131.89,8.44,6.37,2.65,12.36,7.29,17.59,12.24C639,440.5,638.76,445.66,633.82,452.92ZM620,432.65l.88-2.82L601.51,422c-.24.74-.49,1.47-.73,2.2Z" transform="translate(-344.42 -178.15)"/><path class="cls-1" d="M643.82,516.07c1.16-14.83,1.79-29.87,3.74-44.68.83-6.22,6.29-8.94,12-9.52,5.37-.54,7.52,3.1,8.71,8C673.94,493,664.77,510.12,643.82,516.07Z" transform="translate(-344.42 -178.15)"/><path class="cls-1" d="M619.93,460.13C583.13,479.87,545,471.5,507,465.69,544.8,468.43,582.75,474.57,619.93,460.13Z" transform="translate(-344.42 -178.15)"/><path class="cls-1" d="M569.92,430c-10.37.73-20.75,2.13-31.12,2-20.7-.19-41.29-.47-59.95,12.12a52.42,52.42,0,0,1,35-14.87c18.75-.87,37.56-.23,56.34-.23Z" transform="translate(-344.42 -178.15)"/><path class="cls-1" d="M492.65,448.7l39.15-5.52c.09.75.17,1.51.26,2.26l-38.8,5.31Z" transform="translate(-344.42 -178.15)"/><path d="M454.1,517.9l29.84,9.58c-.13.51-.25,1-.38,1.53l-29.63-9.65C454,518.88,454,518.39,454.1,517.9Z" transform="translate(-344.42 -178.15)"/><path class="cls-1" d="M657,702.44q-4.2-7.19-8.38-14.37c.51-.7,1-1.41,1.51-2.11,2.52,1.52,6,2.39,7.3,4.74,1.66,2.95,1.56,7.13,2.21,10.78Z" transform="translate(-344.42 -178.15)"/><path class="cls-1" d="M403.5,673.26l-8.89,12.17-5-4.43,12.57-9.09Z" transform="translate(-344.42 -178.15)"/><path class="cls-1" d="M625.29,738.39l-2.54-17C631.91,733.41,632.3,736.2,625.29,738.39Z" transform="translate(-344.42 -178.15)"/><path d="M556.12,509.65a76.16,76.16,0,0,0,1.35,7.9c.38,1.4,1.53,2.55,2.34,3.82.84-1.22,2.09-2.3,2.45-3.67a75.36,75.36,0,0,0,1.28-8.16l2.19.08c.34,3.64.67,7.28,1,11.26h7.13c.3-3.89.56-7.43.83-11l2.25-.52,2.15,11.54,6,.34c.68-4.3,1.29-8.18,1.9-12l2.13.32v16.53H557.88v37.33h28.79V537H569.25v16.4l7.22.94-3.54-14.4c6.37,3.85,10.11,11.68,6.55,15.77-2.77,3.19-8.88,2.79-14.31,4.19V531.33c7.27,0,14.42.06,21.57,0,4,0,4.38,2.72,4.36,6.19-.07,9.35,0,18.71,0,29.35l9.84-5.63c-4.74,7.74-8,8.7-15.71,8-8.09-.74-16.3-.29-24.45.09-5.21.24-7.54-1.16-7.37-7.76.41-17.11.14-34.23.14-51.35Z" transform="translate(-344.42 -178.15)"/><path d="M507.26,514.91v26.4H525v-16.4h-7.65l3.86,12.88c-7.23-2.3-8.16-5-6.41-17.14.39-.24.78-.65,1.19-.68,13.6-1,13.6-1,13.58,14.56,0,12.3,0,12.3-10.85,12.57-15.64.39-15.7.39-15.69-17,0-6.45-1.77-15.12,1.21-18.7s10.84-2.21,16.57-2.17c23.22.17,18.72-4.51,19.71,20.63.42,10.64.21,21.31.11,32,0,2.45-.81,4.89-1.29,7.59-5.35-2.83,1.15-12.8-7.93-12.39-.25,4.33-.47,8.06-.68,11.79l-2.26.44c-.65-3.82-1.31-7.64-2-11.81h-6c-.58,4-1.13,7.82-1.69,11.63h-2.27c-.43-3.75-.85-7.5-1.32-11.6h-7.22c-.35,4-.68,7.86-1,11.75l-2.6,0c-.17-4.79-.72-9.64-.25-14.35.11-1.1,3.68-2.44,5.69-2.51,8.58-.28,17.17-.12,26.3-.12V514.91Z" transform="translate(-344.42 -178.15)"/><path d="M591.09,500.41c-4.49,4.68-81.58,5-88.38,0Z" transform="translate(-344.42 -178.15)"/><path d="M616.47,542.29C626.84,521.93,630.85,500,631.26,477,638.55,496.33,630.51,531.73,616.47,542.29Z" transform="translate(-344.42 -178.15)"/><path d="M545.94,510c4.2,4.94,4.73,53.22,0,60.23Z" transform="translate(-344.42 -178.15)"/><path d="M500.64,490.07l48.92,4.54A69.94,69.94,0,0,1,500.64,490.07Z" transform="translate(-344.42 -178.15)"/><path d="M644.6,560.42c11.08,3.27,21.31,8.48,26.14,21.34,4.73,12.59-.36,24.21-12.16,28.16a31.33,31.33,0,0,1-15.32,1c4.62-2,9.3-3.84,13.84-6,12-5.79,14.54-20.35,4.79-30.33C656.66,569.2,650.4,565.09,644.6,560.42Z" transform="translate(-344.42 -178.15)"/><path d="M450.89,552.49c-7.7,3.52-15.5,6.81-23.08,10.64s-15.24,8.55-18.35,18c-1.3,4-.85,8.6-1.26,13.74-3.13,0-5.69-3.25-4.67-7.69,1.38-6.07,3.09-13.07,6.84-17.26,10.9-12.21,25.43-16.23,40.05-19.3Z" transform="translate(-344.42 -178.15)"/><path d="M429.15,597.08c-7.29-.71-9.82-4.75-7.65-12.22,2.92-10,15-19,26.11-19.25C423.36,581.62,421,585.58,429.15,597.08Z" transform="translate(-344.42 -178.15)"/><path d="M682.66,502.28c4.6-15.94,5.06-31.23-4.15-45.8C689.47,464.12,691.75,488.85,682.66,502.28Z" transform="translate(-344.42 -178.15)"/><path d="M620,432.65l-19.17-8.48c.24-.73.49-1.46.73-2.2l19.32,7.86Z" transform="translate(-344.42 -178.15)"/></svg>