<svg id="Capa_1" data-name="Capa 1" xmlns="http://www.w3.org/2000/svg" viewBox="0 0 495.69 246.23"><defs><style>.cls-1{fill:#274c4c;}</style></defs><path class="cls-1" d="M553.57,381l100.37,3.68c37.51,1.38,82.8,9.32,100.41,57.15,6.55,17.79,7.76,38.11,8.4,57.77.6,18.18.74,37-4.3,53.36-12.18,39.51-48,49.15-78.81,53.29a2341.78,2341.78,0,0,1-357.78,20.34c-9-.18-18.74-.77-26-8.77-6.62-7.31-9.64-19.17-12.06-30.39A786.39,786.39,0,0,1,268.22,478.6c-2.25-30.83-1.15-66.62,16.14-84.36A43.71,43.71,0,0,1,316,380.84c32.51,0,154.79.49,323,3.32" transform="translate(-267.35 -380.84)"/></svg>