<svg id="Capa_1" data-name="Capa 1" xmlns="http://www.w3.org/2000/svg" viewBox="0 0 555.71 468.9"><defs><style>.cls-1{fill:#fccc48;}</style></defs><path class="cls-1" d="M434.29,701.2a12.51,12.51,0,0,1-2.2,2.22c-8.95,5.26-18,10.35-26.91,15.67C394,725.77,383,732.67,371.84,739.37c-3.64,2.18-7.46,4-11.2,6,.31-.8.63-1.59.94-2.39l-.61-.67-6.14,4c-.67.3-1.89.56-1.92.89-.37,4.06-3.44,3.67-6.09,4.25-4.08.9-8.41,1.4-12.08,3.26-4,2-6.89,1.21-10.69-1.17a21.88,21.88,0,0,0,2.33-1.36c.52-.4,1.41-1.15,1.31-1.41-.27-.73-.85-1.66-1.51-1.85-2.07-.6-4.24-.89-6.44-1.31-.48-2.94-.92-5.6-1.37-8.4-5.51,2-10.6,3.5-15.88,1.47-1.27-3.69-.6-8.28-5.08-10.11l3.31-3-5.16-2.83.58-5.73-3.51-3.14c4.3-.42,9,1.72,10.57-5-.24-1.84-1.51-3.81-4.59-4.46a12,12,0,0,1-3.78-2c-3.66-2.37-4.55-5.05-3.61-9.34a38.7,38.7,0,0,0,.33-6l6.54-4.57c-2.87-2.14-4.81-.3-6.75.37-4.87,1.68-10.72.23-13.11-4.13-.88-1.62-.6-4.37,0-6.31.74-2.22,2.46-4.13,3.81-6.13,1.24-1.84,2.57-3.62,4.32-6.06l-8.09-3.07c-1.32-3.73-3.37-8.18,1.43-12.68-4.24-2-2.43-5.71-2.71-8.8,3.62-1.41,6.25-3.75,6.31-8.68-3.75.73-6.67,0-7.24-4.58-.16-1.24-1.89-2.15-2.61-3.4-1.24-2.13-2.31-4-1.44-7.08,1.63-5.75-3-9.45-10.2-8.88-5.56-9-5.5-11.72.64-21.32-.91-1.4-1.86-2.93-2.87-4.43-4-6-3.83-12.38,1.06-17.91a165.9,165.9,0,0,1,11.92-12c1.16-1.07,3.06-1.3,5.1-2.11,0-.11-.1-1.48.49-2q7.68-6.47,15.6-12.63c4.23-3.3,8.59-6.42,12.89-9.63.75-.56,1.42-1.25,2.2-1.75,12.94-8.36,25.87-16.73,38.86-25,1.78-1.14,3.86-1.91,3.31-4.52-1.58-7.45,3.16-11.42,8.37-15,3.66-2.5,7.6-4.57,11.24-7.51-1.05.34-2.12.62-3.14,1-5,2.06-10.08,3.86-15.55,3.71-1.49-5.42-.68-8.61,4.2-11.95,5.81-4,12-7.32,18-11,2.48-1.53,4.81-3.33,7.32-4.8,4.06-2.38,8.48-4,12.32-6.94,1.93-1.5,5.1-1.29,7.69-2a4.27,4.27,0,0,0,2.25-1.19c3.11-4.12,6.09-5.51,10.69-5.41a7.42,7.42,0,0,0,4.3-1.66c1.9-1.46,3.36-3.31,6.15-1.85.78.4,2.38-.48,3.5-1,9.07-4.4,18.16-8.76,27.15-13.35,6.42-3.29,12.66-6.95,19-10.37,6.79-3.65,13.68-7.09,20.43-10.84,11.47-6.37,22.83-13,34.31-19.33,3.66-2,7.61-3.51,11.31-5.47,4.16-2.2,8.18-4.66,12.26-7a8,8,0,0,1,.94-.62c10.32-4.39,19.56-11,29.9-15.42,6.11-2.6,11.84-6.18,17.85-9.05,3.07-1.46,5.78-4,9.73-3.34,1.35.22,3.37-1.47,4.61-2.76,2.38-2.45,5.28-3.23,8.35-4.1,3.75-1.05,7.46-1.93,10.88-4.56,2.28-1.76,6.2-1.16,8.83-3.37,4.37,1.52,6.14-2.69,8.79-4.6,3.6-2.61,6.71-5.66,11.65-4.17,1.17.36,2.77-.61,4.17-1,1.57-.45,3.12-.93,5.51-1.64a29.67,29.67,0,0,1,2.72-3.71,9.47,9.47,0,0,1,3.48-2.46c5.51-2,11.08-3.77,16.59-5.62l4.43,4.22,1-.7c-.14-.91-.27-1.82-.41-2.77l2.9-1.51-1.4-1.08c.23-.25.44-.67.72-.74,5.54-1.33,11.07-2.81,16.66-3.84a14.74,14.74,0,0,1,10,2,25,25,0,0,0,9.09,3.19c6,.64,11.5,1.62,13.63,8.24-.34,1.66-.72,3.5-1.26,6.16l3.94-1.69-.28,2.77c4.24,2.74,7.05-1,10.23-2.86,2.27,1.26,1.29,5.34,4.68,5.25-6.26,2-6.26,2-5.22,7.21a57.11,57.11,0,0,0,5.83-1.29c2.19-.71,2.65-2.44,1.25-4.29a10.58,10.58,0,0,0-2-1.65c.08-.58.07-1.61.27-1.66,2.63-.67,6,.63,7,2.93.8,1.8,1.74,3.87,1.57,5.75-.28,3,1,4.89,2.75,6.79,1.11,1.17,2.61,2.36,3,3.82.54,2.21-.32,4.9.46,6.95s2.84,3.52,4.29,5.2l-2.88,3.37,8.5,2.94c-.88,4.53-.41,4.84,7.05,4.63-.06-1.23-.11-2.44-.17-3.74l3-.64c.26-4.85.26-4.85-6.1-6.44,2.07-1.11,2.07-1.11,7.3.56a57.42,57.42,0,0,1-.37,7.29c-.66,3.86-.8,3.79,3.24,4.81.83.21,1.52,1,2.94,1.91-3.9,0-6.88-.18-9.83.07-1,.08-2.91,1.29-2.87,1.84.31,5-3.76,7.29-6.28,10.62.25,1.75.52,3.55.88,6.07l11.7-7,.62,1-13.59,10.41.3,1,10.61-.52c-.63-1.56-1-2.62-1.75-4.37,1.09.47,2,.57,2.26,1.05a34.36,34.36,0,0,1,1.77,3.7c-.9,2.87-2,4.93-2.14,7-.42,5.53-4.34,8.51-8.1,11.32-4.45,3.33-9.39,6-14.11,9-2.19,1.37-4.37,2.76-8.09,5.11l4.67,3c-1,7.86-1,7.86,6.91,11L778.12,428c6.63,4.05,13.31,3.32,19.54,4.44,1.42-5.15,1.37-5.21-3.24-6.13a7.38,7.38,0,0,1-3.9-2l7.85.59c2,3.66,2.16,7.89.09,12.53l7.45,1.85c-.15,3.49-.28,6.46-.42,10l-2.88.17c.13-3.13.24-5.94.38-9.27a62.41,62.41,0,0,0-8.14.39c-.92.17-2.5,1.94-2.34,2.52,1,3.49-1.47,5.58-3.07,7.88-3.35,4.8-3.31,6,1.15,9.66a2.26,2.26,0,0,1,.63.89,5.52,5.52,0,0,1,.23,1.12c-1.37,1.95-5.78-.48-5.49,4,4.9,2,10.3-1.74,16.27.84-3.78.8-5.19,3.22-4.88,5.54.68,5.18-2.8,8-5.75,10.76-2.77,2.63-6.38,4.34-9.61,6.49-1.06.71-2.07,1.51-3.07,2.26.72,3.07,3.21,1.8,4.82,2.05,1.27,3.92-2.86,5.6-3.27,8.72-.05.39-2.29.68-3.53.78-1.68.13-3.39,0-3.82,2.41,2.26,4,5.63,4.9,10.06,3.67a15.66,15.66,0,0,1,6.82-.09c-2.9,2.4-6.33,2.34-9.58,2.6-6.67.55-10.12,5.35-14.61,10.46,6.5,1.08,10.79-3.93,16.19-3.59-5.46,5.81-14.17,5.23-19.63,11.16l8.29-2.75a33,33,0,0,0-1.56,5.08,14.9,14.9,0,0,0,.36,3.58l-5.76,5.54.58,1.14c3.34-.79,6.9-1.09,10-2.5,4.12-1.89,8.17-1.72,12.32-1.76a5.17,5.17,0,0,1,.14,1.23c-3.78,1.68-5.48,5.78-8.75,7.93-3.42,2.24-7.29,3.74-10.73,5.95-4.82,3.09-9.43,6.53-14.12,9.82-1.22.85-2.32,2.12-3.65,2.51-6.48,1.89-12,5.78-17.68,9.19a22.3,22.3,0,0,0-2.32,1.55c-4.08,3.14-7.87,6.8-12.28,9.33a144.63,144.63,0,0,1-17.13,7.81,82.83,82.83,0,0,1-11.08,3.5,49.25,49.25,0,0,1-6.94.78c-1.64.82-3.42,2.24-5.36,2.6C659.06,604.52,642,609.9,625,615.93c-17.75,6.33-35.58,12.49-53,19.73-19.64,8.16-38.85,17.46-58.27,26.21-7.93,3.57-16,6.8-23.88,10.52-6.8,3.22-13.42,6.86-20.07,10.41-8.71,4.65-17.33,9.47-26.05,14.08-3.11,1.65-6.41,2.91-9.6,4.34l3-2.65C435.49,698.72,432.54,697.82,434.29,701.2ZM791,476.57l-2.1,3.29,1,.92c1.39-1.29,2.81-2.54,4.1-3.92.09-.09-.77-1.1-1.19-1.68.82-1.15,1.64-2.31,2.81-3.94l-5.93-.44C791.42,472.73,787.55,475.14,791,476.57Zm-494,70.78c-5.73-.19-15.59,7.28-18.15,13.77,2.39-.23,4.72-1.13,6.5-.5,4.23,1.48,6.44-1.49,9-3.72.82-.71,1.63-2.63,1.26-3.32C294.35,551.17,295.39,549.31,297.05,547.35ZM728.88,292.41c-8.23-2.42-16-.29-23.65,3C713.54,298.67,721,293.89,728.88,292.41ZM278.65,614.52c1.49-1.68,2.79-3.21,4.17-4.65s2.46-4,5.27-2.5c.38.2,1,0,1.64,0-.15-1.55-.28-2.91-.42-4.27-2.37.29-4.34.59-6.32.76C278.36,604.28,274.58,607.45,278.65,614.52ZM780.13,497.46c-5.76-1.38-10.53.07-15,3.92C771.33,504.48,773.41,503.93,780.13,497.46ZM796,392.37c4.67-1.77,2.85-6.16,4.87-8.7-2.36-1.8-3.2-.33-4.44,1.22-1,1.3-2.74,2-3.62,2.65l-3.13-1.88c0,2.1-.07,3.62-.09,5.16C791.78,390.66,794.65,387.73,796,392.37Zm-35.82,57.42c5.23-.4,9.57,1.65,13.86-1.8-1.3-1.05-2.76-1.95-4.08-1.74C766.92,446.75,763.33,445.51,760.16,449.79ZM313,536.73c-4.73,2-7.37,6.35-10.56,10.11C307.14,544.92,311.2,542.19,313,536.73Zm-6,159.76c-4.3.73-7.87,2.37-10.12,6.53l2.53,2ZM273.59,592.9c7.89-2,11.43-5.2,11.72-10.59ZM771.06,324.62c-.47-5.48-1.39-6-7.15-3C767.63,321.23,766.68,326.63,771.06,324.62Zm11.31,35.07c-8.08-.22-8.08-.22-9.73,1.79C775.59,360.31,778.87,364,782.37,359.69Zm-36.5-57.83c0-2.4.54-4.27-.07-4.82-2.21-2-4.88-2.05-8.38-.14a27.8,27.8,0,0,1,4.05,1.52A47.87,47.87,0,0,1,745.87,301.86Zm25,100.17c6.28-1.73,6.28-1.73,6-6.6Zm23.45,35,.24-1.23-6.37-2.72-.41,4.05Zm-21.7,49c-5.85-.38-6.43.19-6.08,5.77ZM305.45,686.94l-.62-1.16c-1.86,1-3.73,2-6.1,3.32C302.68,690.64,302.68,690.64,305.45,686.94ZM269,589.16l-.95-1a7.13,7.13,0,0,0-4.8,7.17ZM265.41,566c-3.19,2.61-1.17,4.84-1.41,7.3C268.66,571.45,266.17,569,265.41,566Zm316.12,60.62c.09.45.17.9.26,1.35,2.65.41,4.51-1.08,5.92-3.83ZM778,435l4.78,1.58C783.7,433,783.7,433,778,435Zm13.91-83.78c0-4.61-.06-4.62-5-2.41ZM782.73,450c5.11-1.57,5.2-1.68,3.92-4.85ZM741.12,566.41l-.25-1-5.15,1.3.36,1.43Zm-385,176.36c-3.71-.22-3.71-.22-5.95,3.43ZM286.4,636.61,285,635.17c-.78,1.05-1.58,2.1-2.28,3.2a4.46,4.46,0,0,0,1,.92C284.66,638.45,285.53,637.52,286.4,636.61Zm60.34,111.61c-.11-.45-.21-.9-.31-1.35l-3.78,1.63.43,1.14ZM759.88,534.46l-.24-1.24c-1.54-.15-3.09-.33-4.17,2.57ZM305.56,717.68c-.52-.29-1-.58-1.57-.86l-2.11,3.52,1.16.77Zm341-387.29-.16-1.31L643,330.14l.18.84Zm109.27,223.1c-.14-.34-.27-.67-.4-1-1.27.75-3.22-.18-4.13,2.87Zm-205.7,80.29.42,1.52,3.49-1.31-.25-1Zm9.51-3.33.55,1.12,4.07-2.09-.58-1.17ZM278,566.18c-.48-.7-.76-1.12-1.05-1.53a6.28,6.28,0,0,0-1.36,1.42c-.12.23.46.81.72,1.23Zm331.76,51.71-.16-.94-2.68.49c.06.34.17,1,.19,1C608,618.28,608.83,618.08,609.71,617.89Zm-267-94.26c.95-1.15,1.48-1.52,1.48-1.89s-.62-.92-.9-.87a1.58,1.58,0,0,0-1,1C342.11,522.26,342.43,522.78,342.66,523.63Zm-36,159.79c-.72-.66-1-1.18-1.34-1.17a2.06,2.06,0,0,0-1.37.63c-.14.16.24,1.16.37,1.15A13.31,13.31,0,0,0,306.71,683.42Zm-28.39-64.58c.4-.2.68-.36,1-.51-.27-.33-.48-.84-.82-.93s-.75.29-1.14.47Z" transform="translate(-256.8 -286.99)"/></svg>