<svg id="Capa_1" data-name="Capa 1" xmlns="http://www.w3.org/2000/svg" viewBox="0 0 312.68 349.84"><defs><style>.cls-1{fill:#274c4c;}</style></defs><path class="cls-1" d="M477.42,629.78c6.4,3.69,12.09,8.56,21.93,3.24,2.74-1.49,6.85.87,10.33,1.46v-.1c-2.74,1.33-5.48,2.67-8.22,4-.6-.29-1.19-.57-1.79-.84l1.73.66c31.81,6.91,64.71,4.82,99-8.48,19.85-7.7,37.56-20.5,54.43-34.31,17.09-14,33.09-29.61,50.41-45.27-2.92-2.62-4.68-4.75-7-6.15-29.53-18.31-53-43.13-74.76-69.88-17.48-21.46-35.66-42.31-53.78-63.19-2.63-3-6.54-4.93-10-7.08-7.72-4.71-14.07-10.62-16.19-20.5l13.89,15.31,1.79-1.67c-8.85-10.15-17.41-20.59-26.63-30.36-9.48-10-19.55-19.49-25.54-33.18,1.52.44,3.53.4,4.49,1.41,8.69,9.09,17.49,18.1,25.7,27.65,24.43,28.39,48.36,57.25,72.95,85.48,18.39,21.11,36.82,42.26,56.56,62,11.55,11.55,25.8,20.3,38.7,30.48,4.6,3.64,8.78,7.81,12.29,11C711,564,704.24,575,699.1,586.42c-11.17,24.87-26.83,46.79-48.06,64.28-19.61,16.16-40.83,26.39-64.41,24.71-38.28-2.73-72.5-14.35-103.94-31.23-39-20.92-60.51-49.82-72.44-95.14-7.54-28.63-7.11-59.14,2.5-91.33a254,254,0,0,1,55.66-99c8.62-9.55,17.22-19.12,26.1-28.43,2-2.07,5.05-3.07,7.62-4.57l1.14,1.85c-2.44,2.71-4.79,5.51-7.32,8.13-17.74,18.33-34.09,37.83-47.81,59.13-30.49,47.33-42.67,95.47-33.26,144.19v-.25l1.32,5c-.07.16-.15.32-.22.49.09-.21.19-.42.29-.62a2.68,2.68,0,0,1,1-1.75l1.6-.27c.58,1.7,1.79,3.32,1.64,5.11-1.48,17.82,8.65,29.44,14.58,43.32,1.75,4.09,3-1.71,4.16-.89,1.39,1,3.15,2.05,3.52,3.62.72,3.08-.53,7.58,1.12,9.56,1.91,2.27,6.33,2.07,9.19,3.67,2.56,1.43,4.48,3.83,6.68,5.81l-1.63,2.07q-4.08-2.26-8.18-4.51c6,5.49,8.59,15.22,20.53,13.16,3.1-.53,8.08,1.54,7,7.43l-1.56-.22ZM702.6,560.51c-3.44,2.8-4.77,3.7-5.87,4.82a434.51,434.51,0,0,1-59.43,50.79c-30.09,21.2-61.37,31.09-93.92,32.08-12.15.37-24.12-.27-36.17-.45,23,10.78,48.23,16.12,74.13,19.81,4.34.62,9.13-.16,13.58.2,18.69,1.48,36.1-8.13,51-20.59C672.83,624.6,691.19,595.92,702.6,560.51Z" transform="translate(-405.02 -325.75)"/><path class="cls-1" d="M464.58,563.09c-3.42-5.32-8-10-10.06-16.09-6.66-19.71-12.72-39.78-10.16-62.94.43-3.95.6-7.88,1.13-11.84,5.91-44.39,5.38-37.87,30.73-78.88,8.28-13.39,24.59-20.08,37.8-17.06,12.92,3,20,12.51,26,23.13.84,1.47,1.72,4.36,1,5.3-5.82,7.05-.8,11.43,0,16.89a33.34,33.34,0,0,1-.19,10.39c-2,11.1-4.27,22.21-6.58,33.31-2.59,12.42-.85,23.42,4.34,33.09,4.75,8.84,12.16,14.37,23,15.1,13.89.94,27.73,1.23,42.44-4.55a19.27,19.27,0,0,1,13.09.07c10.1,4,16.46,19.69,13.67,31.88-5.3,23.19-25.36,47.89-51.41,57-16,5.59-29.85,3.87-43.48-.21-8.62-2.58-17-5.79-25.64-8.26C492.49,584.36,478.75,573.64,464.58,563.09Zm70.26-158.82,1.56-1.95c-4.84-4.89-9.3-10.23-14.6-14.57-13.3-10.89-30.33-6.67-42.25,10.73-14.18,20.7-26.43,42-27.11,66.11-.22,7.78-1.51,15.76-2.08,23.61-1.51,20.51,4.57,38.16,10.13,55.95a23.86,23.86,0,0,0,5.68,8.85c14,15,30.76,26.16,51.49,31.69,5.93,1.58,11.62,3.71,17.41,5.6,13.83,4.5,27.81,7.17,44.26,1,24.33-9.08,40.14-30.29,45.5-50.93,2.74-10.53-2.63-16.4-8-22.62-4.85-5.62-10.86-3.29-17.67-1C583.4,522,568.3,521.43,553.69,519a25.88,25.88,0,0,1-17.61-10.9C527.79,496,524.41,482,527.85,465.2c1.22-5.95,1.47-12,3.42-17.81,5.37-16,3.28-29.55-3.7-41.78-.43-.75.14-2.22.32-4.16Z" transform="translate(-405.02 -325.75)"/><path class="cls-1" d="M633.23,506.69c9.39,2.76,15.91,8.72,19.73,17.71Z" transform="translate(-405.02 -325.75)"/><path class="cls-1" d="M548.15,473.2c4.14,12.28,4.14,12.28,22.2,21.39C555.23,495.79,546.6,487.75,548.15,473.2Z" transform="translate(-405.02 -325.75)"/><path class="cls-1" d="M613.21,588c6.45-4.67,12.93-9.28,19.34-14s12.55-9.48,19.24-13.51c-11.28,12-23.46,22.42-38.6,27.83Z" transform="translate(-405.02 -325.75)"/><path class="cls-1" d="M588.3,629.4c-10.08,3.86-20.17,7.7-29.56,3.61v.32l29.58-5.45Z" transform="translate(-405.02 -325.75)"/><path class="cls-1" d="M432.16,442.21q-3.54,13.85-7.09,27.7c-1.45-9.31.35-18.48,5.47-27.57Z" transform="translate(-405.02 -325.75)"/><path class="cls-1" d="M573.82,422.42l11.82,16.23-2.17,1.85-11.88-16.18Z" transform="translate(-405.02 -325.75)"/><path class="cls-1" d="M605.74,469.09c2.86,3.76,7.32,6.22,6.46,13.08l-8.64-11.25Z" transform="translate(-405.02 -325.75)"/><path class="cls-1" d="M421.24,488.46V509c-4.28-6-4.31-8.35-1-20.42Z" transform="translate(-405.02 -325.75)"/><path class="cls-1" d="M644.47,557.16,627.34,571l-1.54-2.22,17.31-13.92C643.56,555.59,644,556.38,644.47,557.16Z" transform="translate(-405.02 -325.75)"/><path class="cls-1" d="M677.38,563.18,662.32,580l-1-1,15-16.76Z" transform="translate(-405.02 -325.75)"/><path class="cls-1" d="M553.31,428q-1.59,8.76-3.17,17.5c-2.59-5.76-1.37-11.59.9-17.45Z" transform="translate(-405.02 -325.75)"/><path class="cls-1" d="M451.51,557.65l9.78,10c-.46.49-.92,1-1.37,1.46l-10.07-9Z" transform="translate(-405.02 -325.75)"/><path class="cls-1" d="M494,606.21l-12.61-6c.5-.83,1-1.66,1.49-2.48l12.61,6Z" transform="translate(-405.02 -325.75)"/><path class="cls-1" d="M508.35,361.67l-10.25-9.2,1.13-1.31,10.27,9.22Z" transform="translate(-405.02 -325.75)"/><path class="cls-1" d="M425.51,543.86l4.05,10.41-2.66,1.42q-1.54-5.75-3.1-11.49Z" transform="translate(-405.02 -325.75)"/><path class="cls-1" d="M643.84,594.73l-10,9.7L632.23,602l11.61-7Z" transform="translate(-405.02 -325.75)"/><path class="cls-1" d="M442.43,534.56c.76,3,1.52,6,2.27,9l-2.48,1.13c-.6-3.25-1.19-6.51-1.78-9.76Z" transform="translate(-405.02 -325.75)"/><path class="cls-1" d="M423.8,544.2c-.45-1.64-.9-3.29-1.34-4.93l1.68-.77c.46,1.79.91,3.58,1.37,5.36Z" transform="translate(-405.02 -325.75)"/><path class="cls-1" d="M588.33,627.88l4.93-2c.13.59.25,1.17.37,1.76l-5.33,1.78Z" transform="translate(-405.02 -325.75)"/><path class="cls-1" d="M414.88,539.05c4-2.75,4.84-1.28,4,2.59l-1.6.27-2.38-3.11Z" transform="translate(-405.02 -325.75)"/><path class="cls-1" d="M440.44,534.94c0-1.31-.07-2.63-.1-3.94.7,1.19,1.39,2.38,2.09,3.56Z" transform="translate(-405.02 -325.75)"/><path class="cls-1" d="M420.28,488.58l-.24-5.13,1.75-.33c-.19,1.78-.37,3.56-.55,5.34Z" transform="translate(-405.02 -325.75)"/><path class="cls-1" d="M430.54,442.34l2.33-3.39c-.24,1.08-.47,2.17-.71,3.26Z" transform="translate(-405.02 -325.75)"/><path class="cls-1" d="M440.85,491.9c-.1,1.13-.19,2.25-.29,3.37l-1.64.25.51-3.39Z" transform="translate(-405.02 -325.75)"/><polygon class="cls-1" points="238.81 269.28 239.44 268.96 238.82 268.98 238.81 269.28"/><path class="cls-1" d="M509.68,634.48l1.06-.52-1.05.42Z" transform="translate(-405.02 -325.75)"/><path class="cls-1" d="M613.19,588.29l-1.48.07,1.5-.37Z" transform="translate(-405.02 -325.75)"/><path class="cls-1" d="M558.74,633v0Z" transform="translate(-405.02 -325.75)"/><path class="cls-1" d="M439.82,498.68a2.33,2.33,0,0,1,.4.9c0,.2-.34.49-.52.74l.09-1.63Z" transform="translate(-405.02 -325.75)"/><path class="cls-1" d="M440.56,495.27c-.25,1.14-.49,2.28-.74,3.41h0l-.87-3.17Z" transform="translate(-405.02 -325.75)"/><path class="cls-1" d="M439.43,492.13l.92-2.44c.17.74.33,1.48.49,2.21Z" transform="translate(-405.02 -325.75)"/><path class="cls-1" d="M586.68,658.5l19,1.91c-8.84,5.51-16.81,5.32-34.79-2.1l14.33-2.18c0,.62.07,1.23.1,1.84a1.83,1.83,0,0,1,1.67.51Z" transform="translate(-405.02 -325.75)"/><path class="cls-1" d="M605.41,641.74c-10.45,8-21.74,10.2-33.25,10.81Z" transform="translate(-405.02 -325.75)"/><path class="cls-1" d="M673.84,604.86l15.1-26.76c-1.36,10-4,14.68-14.26,26.73Z" transform="translate(-405.02 -325.75)"/><path class="cls-1" d="M674.68,604.83c-4.57,9.7-5.72,11.15-15.19,17.31l14.35-17.28Z" transform="translate(-405.02 -325.75)"/><path class="cls-1" d="M644.7,615.5l6.64-6.38,1.24,1.31-6.77,6.93Z" transform="translate(-405.02 -325.75)"/><path class="cls-1" d="M644.63,638.9l6-4c.3.48.6,1,.89,1.44l-6.06,4.74C645.17,640.36,644.9,639.63,644.63,638.9Z" transform="translate(-405.02 -325.75)"/><path class="cls-1" d="M585.22,656.13l2.89-.4-1.43,2.77.31,0a1.77,1.77,0,0,1-1.67-.51C585.29,657.36,585.26,656.75,585.22,656.13Z" transform="translate(-405.02 -325.75)"/><path class="cls-1" d="M505.43,429.21a39.63,39.63,0,0,1-.14,4.32c-8.85,2.54-17.72,5.25-26.57,6.91-2.34.44-6-1.82-6.49-3.94-.45-1.93,2-6.05,4.2-8,9.95-9,28.66-9.38,36.56-.57l-7.57,1.56c-10.77-4.48-17.91-3.19-25.83,5.07Z" transform="translate(-405.02 -325.75)"/><path class="cls-1" d="M516.7,503.25c-4.25,12-8.63,22.09-17,30.53-1.8,1.8-3.74,3.86-5.86,4.79s-5,1.38-6.39.43-1.74-3.91-1.29-6C488.26,523.24,504.5,507,516.7,503.25Zm-24.28,27.1c9.68-6.78,9.68-6.78,11.12-15.08Z" transform="translate(-405.02 -325.75)"/><path class="cls-1" d="M509.13,474.94c-7.25,5.61-14.23,11.77-21.83,16.67-6.92,4.47-13.1,3.92-14.31.3-1.27-3.84,2-9,9.4-13.19A100.24,100.24,0,0,1,500.21,471c2.87-.94,6,.18,9,.36Zm-14.29,5.74-1-2.34c-4.64,2.05-9.59,3.51-11.92,10.2Z" transform="translate(-405.02 -325.75)"/><path class="cls-1" d="M565,572.66c-5.43.7-8.43-1.75-8.75-7-.69-11.28,3.11-21.62,12.53-31.36,6,7.35,3.24,16.11.85,24.68-1.29,4.64-3.08,9.25-4.65,13.88Zm2.29-26.41-3,.16-2.94,13.87h2.48Q565.6,553.27,567.31,546.25Z" transform="translate(-405.02 -325.75)"/><path class="cls-1" d="M544.35,529c-1.61,8.11-3,16.22-4.94,24.31-.62,2.65-2,5.88-4,7.7-2.15,2-5.69,3.67-8.08,3.48-1.49-.12-3.19-4-2.71-6.09,2.61-11.56,9-21.4,17.38-30.09Zm-8.91,17.09.25-.48-.35.53-5.28,9.93,2.76.57Q534.13,551.37,535.44,546.1Z" transform="translate(-405.02 -325.75)"/><path class="cls-1" d="M595,533.21c.24-1.45.49-2.9.83-4.92,5.24,5.43,7,16.87,3.33,22.65-1.38,2.18-4.72,5.14-6.32,5-2.31-.27-5.34-2.71-5.41-4.87-.19-5.9,1-12.14,1.8-19.68l6.06,1.81c-3.61,5.55-3.74,10.68-.21,15.32Q595,540.85,595,533.21Z" transform="translate(-405.02 -325.75)"/><path class="cls-1" d="M519.11,411.21c-10.47,2.93-17,2-22.68-.9-1.78-.89-2.22-3.93-3.28-6,2.34-1.06,5-3.18,7-3C507,402.07,513.19,404.24,519.11,411.21Zm-14.37-4.54-4.88-.17-1.9.07c.64-.11,1.28-.23,1.93-.33,1.56.1,3.13.2,4.71.33l.54.84Z" transform="translate(-405.02 -325.75)"/><path class="cls-1" d="M504.36,457.56c-9.94,7.12-15.17,8-27.83,5.26C484.92,451.79,496.91,449.22,504.36,457.56Zm-15.28-.44-.18,3.62,6.78-1.21c.06-1.11.12-2.21.17-3.32Z" transform="translate(-405.02 -325.75)"/><path class="cls-1" d="M503.18,391.94l9.94,4.11-1.5,2.68-9.87-4.22C502.23,393.66,502.7,392.8,503.18,391.94Z" transform="translate(-405.02 -325.75)"/><path class="cls-1" d="M581.32,573l-9.77-.37c0-.45,0-.9.05-1.35l9.66,2Z" transform="translate(-405.02 -325.75)"/><path class="cls-1" d="M565,572.89l3.32-.85,0,.43-3.28.19Z" transform="translate(-405.02 -325.75)"/><path class="cls-1" d="M568.32,572l3.28-.79c0,.45,0,.9-.05,1.35l-3.25-.14Z" transform="translate(-405.02 -325.75)"/><path class="cls-1" d="M581.26,573.23s0-.23.06-.24S581.26,573.23,581.26,573.23Z" transform="translate(-405.02 -325.75)"/></svg>